<svg width="765" height="449" viewBox="0 0 765 449" fill="none" xmlns="http://www.w3.org/2000/svg">
<path opacity="0.2" d="M718.97 154.189C676.341 180.274 621.156 214.729 605.921 297.478H602.671C617.494 215.648 670.666 180.375 713.311 154.189H718.97Z" fill="black"/>
<path d="M498.453 413.231C471.502 413.231 444.853 402.22 431.87 384.246C423.864 373.134 414.558 349.863 442.269 318.811L444.727 320.62C425.132 342.585 421.518 364.621 434.533 382.681C450.386 404.646 487.784 415.7 519.712 407.833C552.417 399.779 572.265 374.024 574.183 337.172C580.731 211.112 654.686 172.278 708.681 143.925C742.242 126.31 766.482 113.591 761.155 86.7303C760.41 83.0121 758.777 80.4424 756.13 78.8632C749.234 74.743 735.759 77.5999 720.159 80.8874C689.547 87.3476 647.631 96.191 622.662 57.731L625.405 56.2954C649.185 92.9465 688.136 84.7205 719.446 78.1167C735.759 74.6856 749.836 71.7139 757.874 76.4944C761.282 78.5187 763.375 81.72 764.215 86.2566C769.938 115.084 743.606 128.923 710.235 146.437C656.857 174.46 583.774 212.834 577.306 337.373C575.309 375.561 554.605 402.277 520.489 410.676C513.301 412.409 505.891 413.268 498.453 413.231Z" fill="#00C4C9"/>
<path opacity="0.2" d="M498.453 413.231C471.502 413.231 444.853 402.22 431.87 384.246C423.864 373.134 414.558 349.863 442.269 318.811L444.727 320.62C425.132 342.585 421.518 364.621 434.533 382.681C450.386 404.646 487.784 415.7 519.712 407.833C552.417 399.779 572.265 374.024 574.183 337.172C580.731 211.112 654.686 172.278 708.681 143.925C742.242 126.31 766.482 113.591 761.155 86.7303C760.41 83.0121 758.777 80.4424 756.13 78.8632C749.234 74.743 735.759 77.5999 720.159 80.8874C689.547 87.3476 647.631 96.191 622.662 57.731L625.405 56.2954C649.185 92.9465 688.136 84.7205 719.446 78.1167C735.759 74.6856 749.836 71.7139 757.874 76.4944C761.282 78.5187 763.375 81.72 764.215 86.2566C769.938 115.084 743.606 128.923 710.235 146.437C656.857 174.46 583.774 212.834 577.306 337.373C575.309 375.561 554.605 402.277 520.489 410.676C513.301 412.409 505.891 413.268 498.453 413.231Z" fill="#F6F6F6"/>
<path d="M590.021 23.7935C597.325 23.8316 604.582 24.8624 611.549 26.8513C611.549 26.8513 628.988 53.7977 631.048 59.9708C630.319 66.0578 618.984 76.0353 618.984 76.0353L590.021 23.7935Z" fill="#00C4C9"/>
<path opacity="0.3" d="M590.021 23.7935C597.325 23.8316 604.582 24.8624 611.549 26.8513C611.549 26.8513 628.988 53.7977 631.048 59.9708C630.319 66.0578 618.984 76.0353 618.984 76.0353L590.021 23.7935Z" fill="#F6F6F6"/>
<path d="M641.67 154.62C634.955 147.184 628.83 139.326 623.344 131.105C622.012 129.028 620.749 126.913 619.555 124.76C618.873 123.539 618.223 122.319 617.589 121.084C616.757 119.883 616.111 118.584 615.671 117.223C613.768 99.0334 620.649 85.6392 614.085 71.0391L587.959 80.2844C587.959 80.2844 590.179 106.298 595.252 121.917C598.423 131.579 605.525 139.934 612.389 147.672C614.529 150.084 616.59 152.567 618.73 154.993C620.871 157.42 623.027 159.386 625.072 161.669C628.163 165.129 629.178 168.445 626.847 172.522L626.451 173.168C625.785 174.231 628.892 175.437 630.858 173.168C634.029 169.464 633.585 169.694 636.343 166.536C638.024 164.626 639.942 162.545 641.607 160.793C642.409 159.932 642.855 158.844 642.867 157.717C642.878 156.59 642.455 155.495 641.67 154.62Z" fill="#00C4C9"/>
<path opacity="0.7" d="M641.67 154.62C634.955 147.184 628.83 139.326 623.344 131.105C622.012 129.028 620.749 126.913 619.555 124.76C618.873 123.539 618.223 122.319 617.589 121.084C616.757 119.883 616.111 118.584 615.671 117.223C613.768 99.0334 620.649 85.6392 614.085 71.0391L587.959 80.2844C587.959 80.2844 590.179 106.298 595.252 121.917C598.423 131.579 605.525 139.934 612.389 147.672C614.529 150.084 616.59 152.567 618.73 154.993C620.871 157.42 623.027 159.386 625.072 161.669C628.163 165.129 629.178 168.445 626.847 172.522L626.451 173.168C625.785 174.231 628.892 175.437 630.858 173.168C634.029 169.464 633.585 169.694 636.343 166.536C638.024 164.626 639.942 162.545 641.607 160.793C642.409 159.932 642.855 158.844 642.867 157.717C642.878 156.59 642.455 155.495 641.67 154.62Z" fill="#F6F6F6"/>
<path opacity="0.3" d="M635.281 147.141C631.135 151.165 626.534 154.784 621.552 157.936C622.234 158.626 622.9 159.372 623.581 160.032C628.569 156.981 633.098 153.357 637.057 149.251L635.281 147.141Z" fill="#00C4C9"/>
<path opacity="0.3" d="M641.67 154.62L641.48 154.419C640.26 155.686 639.551 157.29 639.467 158.97C639.365 160.122 639.571 161.279 640.069 162.343L641.575 160.721C642.362 159.869 642.802 158.797 642.819 157.686C642.836 156.575 642.431 155.492 641.67 154.62Z" fill="#00C4C9"/>
<path d="M583.807 41.0203C580.974 44.8607 577.577 48.3334 573.708 51.3423C571.563 53.0167 569.212 54.4619 566.701 55.6491C565.382 56.2611 564.015 56.7842 562.611 57.2139L561.533 57.5298L561.184 57.6159L560.439 57.8025C559.98 57.9011 559.514 57.9683 559.044 58.0035C557.707 58.0961 556.361 57.9845 555.065 57.6733C553.43 57.2531 551.863 56.6401 550.404 55.8501C549.23 55.2288 548.093 54.5531 546.996 53.8259C545.014 52.4908 543.119 51.0528 541.32 49.5191C537.853 46.5437 534.67 43.3067 531.808 39.8431C531.257 39.1683 530.983 38.3405 531.034 37.5025C531.085 36.6645 531.457 35.8688 532.087 35.2528C532.716 34.6368 533.564 34.2392 534.482 34.1284C535.401 34.0176 536.334 34.2008 537.119 34.6462H537.246C540.987 36.7996 544.76 39.0678 548.438 41.0921C550.309 42.0826 552.116 43.0875 553.908 43.8628C554.725 44.2505 555.567 44.5956 556.428 44.8964C556.965 45.1109 557.539 45.2373 558.125 45.2697C558.22 45.2697 558.125 45.1692 557.538 45.1835C557.353 45.1735 557.168 45.1735 556.983 45.1835L556.634 45.2553L557.158 45.0113C557.862 44.668 558.545 44.2894 559.203 43.8771C560.621 42.9714 561.947 41.9529 563.166 40.8336C565.935 38.2053 568.529 35.4296 570.934 32.5215C572.251 31.1867 574.072 30.346 576.039 30.1641C578.005 29.9822 579.976 30.4724 581.564 31.5384C583.152 32.6045 584.243 34.1694 584.623 35.9263C585.002 37.6831 584.644 39.5051 583.616 41.0346L583.807 41.0203Z" fill="#00C4C9"/>
<path opacity="0.7" d="M583.807 41.0203C580.974 44.8607 577.577 48.3334 573.708 51.3423C571.563 53.0167 569.212 54.4619 566.701 55.6491C565.382 56.2611 564.015 56.7842 562.611 57.2139L561.533 57.5298L561.184 57.6159L560.439 57.8025C559.98 57.9011 559.514 57.9683 559.044 58.0035C557.707 58.0961 556.361 57.9845 555.065 57.6733C553.43 57.2531 551.863 56.6401 550.404 55.8501C549.23 55.2288 548.093 54.5531 546.996 53.8259C545.014 52.4908 543.119 51.0528 541.32 49.5191C537.853 46.5437 534.67 43.3067 531.808 39.8431C531.257 39.1683 530.983 38.3405 531.034 37.5025C531.085 36.6645 531.457 35.8688 532.087 35.2528C532.716 34.6368 533.564 34.2392 534.482 34.1284C535.401 34.0176 536.334 34.2008 537.119 34.6462H537.246C540.987 36.7996 544.76 39.0678 548.438 41.0921C550.309 42.0826 552.116 43.0875 553.908 43.8628C554.725 44.2505 555.567 44.5956 556.428 44.8964C556.965 45.1109 557.539 45.2373 558.125 45.2697C558.22 45.2697 558.125 45.1692 557.538 45.1835C557.353 45.1735 557.168 45.1735 556.983 45.1835L556.634 45.2553L557.158 45.0113C557.862 44.668 558.545 44.2894 559.203 43.8771C560.621 42.9714 561.947 41.9529 563.166 40.8336C565.935 38.2053 568.529 35.4296 570.934 32.5215C572.251 31.1867 574.072 30.346 576.039 30.1641C578.005 29.9822 579.976 30.4724 581.564 31.5384C583.152 32.6045 584.243 34.1694 584.623 35.9263C585.002 37.6831 584.644 39.5051 583.616 41.0346L583.807 41.0203Z" fill="#F6F6F6"/>
<path d="M525.863 31.5742L527.718 34.4454C527.718 34.4454 529.129 38.2067 531.966 38.8958L539.671 36.6419L539.275 36.0533C538.292 34.7038 538.403 32.0766 538.736 29.8945C539.069 27.7124 537.832 27.6406 536.913 28.1861C536.261 28.8649 535.804 29.6784 535.581 30.5549C535.203 30.0808 534.784 29.6344 534.328 29.2198L531.982 27.0951C531.49 26.6594 530.834 26.4084 530.146 26.3924C529.458 26.3764 528.789 26.5967 528.273 27.0089L526.37 28.545C525.919 28.923 525.623 29.4287 525.531 29.9791C525.438 30.5296 525.556 31.092 525.863 31.5742Z" fill="#00C4C9"/>
<path opacity="0.7" d="M525.863 31.5742L527.718 34.4454C527.718 34.4454 529.129 38.2067 531.966 38.8958L539.671 36.6419L539.275 36.0533C538.292 34.7038 538.403 32.0766 538.736 29.8945C539.069 27.7124 537.832 27.6406 536.913 28.1861C536.261 28.8649 535.804 29.6784 535.581 30.5549C535.203 30.0808 534.784 29.6344 534.328 29.2198L531.982 27.0951C531.49 26.6594 530.834 26.4084 530.146 26.3924C529.458 26.3764 528.789 26.5967 528.273 27.0089L526.37 28.545C525.919 28.923 525.623 29.4287 525.531 29.9791C525.438 30.5296 525.556 31.092 525.863 31.5742Z" fill="#F6F6F6"/>
<path d="M597.804 21.2376C589.259 23.2889 581.072 26.4154 573.486 30.526C572.302 31.1968 571.373 32.1792 570.824 33.3416C570.274 34.5039 570.13 35.7906 570.41 37.0293C573.47 50.5814 580.429 68.7275 587.944 80.2842L622.995 67.1484C623.233 61.5495 614.72 43.4321 606.048 25.9177C604.494 22.7737 601.498 20.4336 597.804 21.2376Z" fill="#00C4C9"/>
<path opacity="0.8" d="M597.804 21.2376C589.259 23.2889 581.072 26.4154 573.486 30.526C572.302 31.1968 571.373 32.1792 570.824 33.3416C570.274 34.5039 570.13 35.7906 570.41 37.0293C573.47 50.5814 580.429 68.7275 587.944 80.2842L622.995 67.1484C623.233 61.5495 614.72 43.4321 606.048 25.9177C604.494 22.7737 601.498 20.4336 597.804 21.2376Z" fill="#F6F6F6"/>
<path opacity="0.3" d="M611.485 37.0151L604.526 34.9048C606.111 38.5943 611.707 43.26 615.623 46.0021C614.355 43.1308 612.944 40.116 611.485 37.0151Z" fill="#00C4C9"/>
<path d="M595.506 7.02532C592.605 2.0294 586.343 -0.48291 578.829 0.0769781C572.487 0.565085 566.875 6.42236 567.541 9.58071C568.207 12.739 573.534 14.0885 574.548 15.1796L570.157 18.0508C569.637 18.3908 569.198 18.8226 568.867 19.3203C568.536 19.8179 568.319 20.371 568.23 20.9464C568.141 21.5218 568.182 22.1075 568.35 22.6683C568.517 23.2291 568.809 23.7534 569.206 24.2096C571.061 26.3343 573.502 28.5164 574.913 30.1243C587.056 29.8372 596.045 25.6452 599.295 21.6111C598.074 16.5004 598.328 11.9925 595.506 7.02532Z" fill="#00C4C9"/>
<path opacity="0.8" d="M595.506 7.02532C592.605 2.0294 586.343 -0.48291 578.829 0.0769781C572.487 0.565085 566.875 6.42236 567.541 9.58071C568.207 12.739 573.534 14.0885 574.548 15.1796L570.157 18.0508C569.637 18.3908 569.198 18.8226 568.867 19.3203C568.536 19.8179 568.319 20.371 568.23 20.9464C568.141 21.5218 568.182 22.1075 568.35 22.6683C568.517 23.2291 568.809 23.7534 569.206 24.2096C571.061 26.3343 573.502 28.5164 574.913 30.1243C587.056 29.8372 596.045 25.6452 599.295 21.6111C598.074 16.5004 598.328 11.9925 595.506 7.02532Z" fill="#F6F6F6"/>
<path d="M589.545 10.1263C590.407 12.1284 590.594 14.317 590.083 16.4155C589.572 18.514 588.385 20.4281 586.673 21.9159C584.961 23.4037 582.8 24.3984 580.463 24.7743C578.127 25.1502 575.72 24.8903 573.546 24.0276C571.373 23.1649 569.531 21.7381 568.253 19.9275C566.975 18.1169 566.318 16.0038 566.366 13.8553C566.414 11.7068 567.164 9.61935 568.521 7.85684C569.879 6.09433 571.783 4.73588 573.993 3.95319C576.96 2.90667 580.263 2.96894 583.179 4.12634C586.095 5.28374 588.385 7.44166 589.545 10.1263Z" fill="#D51072"/>
<path d="M692.48 139.503C692.305 134.78 692.068 135.196 691.925 131.22C691.83 128.779 691.814 126.066 691.798 123.726C691.793 122.615 691.364 121.539 690.584 120.681C689.804 119.823 688.721 119.235 687.518 119.017C685.425 118.629 683.317 118.27 681.177 117.869C678.434 117.337 675.723 116.763 673.044 116.06C670.951 115.514 668.89 114.911 666.845 114.236C664.8 113.562 662.502 112.801 660.377 111.911C657.872 110.949 655.399 109.915 652.958 108.839C650.215 107.661 647.504 106.427 644.794 105.178C634.362 89.544 634.14 79.2363 622.948 67.1484L598.915 76.9967C598.915 76.9967 616.575 105.364 628.592 117.395C635.519 124.314 646.379 127.444 656.065 129.712C663.056 131.335 670.143 132.584 677.229 133.775C679.988 134.234 682.984 134.407 685.362 135.9C687.121 137.121 688.328 138.883 688.754 140.853C688.86 141.255 688.955 141.657 689.04 142.059C689.341 143.264 692.591 142.346 692.48 139.503Z" fill="#00C4C9"/>
<path opacity="0.8" d="M692.48 139.503C692.305 134.78 692.068 135.196 691.925 131.22C691.83 128.779 691.814 126.066 691.798 123.726C691.793 122.615 691.364 121.539 690.584 120.681C689.804 119.823 688.721 119.235 687.518 119.017C685.425 118.629 683.317 118.27 681.177 117.869C678.434 117.337 675.723 116.763 673.044 116.06C670.951 115.514 668.89 114.911 666.845 114.236C664.8 113.562 662.502 112.801 660.377 111.911C657.872 110.949 655.399 109.915 652.958 108.839C650.215 107.661 647.504 106.427 644.794 105.178C634.362 89.544 634.14 79.2363 622.948 67.1484L598.915 76.9967C598.915 76.9967 616.575 105.364 628.592 117.395C635.519 124.314 646.379 127.444 656.065 129.712C663.056 131.335 670.143 132.584 677.229 133.775C679.988 134.234 682.984 134.407 685.362 135.9C687.121 137.121 688.328 138.883 688.754 140.853C688.86 141.255 688.955 141.657 689.04 142.059C689.341 143.264 692.591 142.346 692.48 139.503Z" fill="#F6F6F6"/>
<path opacity="0.3" d="M680.288 117.682C679.337 117.495 678.386 117.309 677.419 117.093C677.498 122.06 674.93 130.617 673.995 133.215L677.007 133.732C678.981 128.561 680.087 123.15 680.288 117.682Z" fill="#00C4C9"/>
<path opacity="0.3" d="M691.861 123.726C691.856 122.616 691.43 121.543 690.653 120.685C689.876 119.827 688.797 119.238 687.597 119.017L686.011 118.744C686.266 120.376 687.188 121.862 688.595 122.907C689.5 123.665 690.585 124.225 691.766 124.544C691.861 124.286 691.861 123.998 691.861 123.726Z" fill="#00C4C9"/>
<path d="M587.31 10.2123C587.944 12.3944 585.249 14.677 583.109 12.7964C581.111 10.857 578.925 9.08403 576.577 7.499C574.373 6.25002 577.306 4.06789 580.778 4.9149C582.26 5.25194 583.628 5.9103 584.766 6.83319C585.904 7.75608 586.777 8.9158 587.31 10.2123Z" fill="#F6F6F6"/>
<path d="M587.484 79.581C586.374 79.9543 588.404 81.677 588.404 81.677C588.404 81.677 610.598 74.8004 624.073 67.7229C624.106 67.2944 624.025 66.865 623.838 66.4705C623.65 66.076 623.361 65.7277 622.995 65.4546C611.462 70.7672 599.606 75.4835 587.484 79.581Z" fill="#00C4C9"/>
<path opacity="0.5" d="M587.484 79.581C586.374 79.9543 588.404 81.677 588.404 81.677C588.404 81.677 610.598 74.8004 624.073 67.7229C624.106 67.2944 624.025 66.865 623.838 66.4705C623.65 66.076 623.361 65.7277 622.995 65.4546C611.462 70.7672 599.606 75.4835 587.484 79.581Z" fill="#F6F6F6"/>
<path d="M603.813 20.2903C608.188 22.3001 612.294 24.4104 616.495 26.7505C618.54 27.9277 620.569 29.1193 622.583 30.4113C624.596 31.7033 626.594 33.0241 628.607 34.5171L629.352 35.077L630.287 35.8523C630.845 36.3038 631.374 36.7831 631.873 37.2879C632.38 37.7903 632.808 38.2784 633.22 38.7235C633.632 39.1685 634.076 39.6997 634.441 40.1591C635.918 42.0047 637.283 43.9217 638.531 45.9015C640.988 49.7409 643.108 53.749 644.872 57.8889C645.198 58.671 645.215 59.5314 644.92 60.3235C644.625 61.1157 644.036 61.7908 643.253 62.2341C642.47 62.6774 641.542 62.8614 640.626 62.755C639.71 62.6485 638.864 62.2581 638.23 61.6502L638.15 61.564C634.98 58.5062 631.92 55.2904 628.845 52.29C625.769 49.2896 622.646 46.2461 620.062 44.911C616.463 42.8867 612.452 40.8625 608.473 38.8814L596.488 32.8518C594.63 31.9609 593.239 30.4379 592.62 28.6179C592.002 26.7979 592.207 24.83 593.191 23.1471C594.175 21.4642 595.857 20.2042 597.866 19.6442C599.876 19.0842 602.049 19.2701 603.908 20.1611L603.813 20.2903Z" fill="#00C4C9"/>
<path opacity="0.8" d="M603.813 20.2903C608.188 22.3001 612.294 24.4104 616.495 26.7505C618.54 27.9277 620.569 29.1193 622.583 30.4113C624.596 31.7033 626.594 33.0241 628.607 34.5171L629.352 35.077L630.287 35.8523C630.845 36.3038 631.374 36.7831 631.873 37.2879C632.38 37.7903 632.808 38.2784 633.22 38.7235C633.632 39.1685 634.076 39.6997 634.441 40.1591C635.918 42.0047 637.283 43.9217 638.531 45.9015C640.988 49.7409 643.108 53.749 644.872 57.8889C645.198 58.671 645.215 59.5314 644.92 60.3235C644.625 61.1157 644.036 61.7908 643.253 62.2341C642.47 62.6774 641.542 62.8614 640.626 62.755C639.71 62.6485 638.864 62.2581 638.23 61.6502L638.15 61.564C634.98 58.5062 631.92 55.2904 628.845 52.29C625.769 49.2896 622.646 46.2461 620.062 44.911C616.463 42.8867 612.452 40.8625 608.473 38.8814L596.488 32.8518C594.63 31.9609 593.239 30.4379 592.62 28.6179C592.002 26.7979 592.207 24.83 593.191 23.1471C594.175 21.4642 595.857 20.2042 597.866 19.6442C599.876 19.0842 602.049 19.2701 603.908 20.1611L603.813 20.2903Z" fill="#F6F6F6"/>
<path d="M648.63 65.0523L647.282 61.9945C647.282 61.9945 646.537 58.0896 643.858 56.9985L635.931 58.1327L636.201 58.7643C636.93 60.1999 636.375 62.8271 635.662 64.9231C634.949 67.0191 636.153 67.2919 637.168 66.8755C637.739 66.6458 638.294 65.7127 638.896 64.7221C639.192 65.2212 639.525 65.7009 639.895 66.1577L641.845 68.5839C642.252 69.0867 642.854 69.4312 643.531 69.5484C644.207 69.6656 644.907 69.5467 645.491 69.2156L647.647 67.9666C648.152 67.6539 648.524 67.195 648.702 66.6654C648.881 66.1358 648.855 65.567 648.63 65.0523Z" fill="#00C4C9"/>
<path opacity="0.8" d="M648.63 65.0523L647.282 61.9945C647.282 61.9945 646.537 58.0896 643.858 56.9985L635.931 58.1327L636.201 58.7643C636.93 60.1999 636.375 62.8271 635.662 64.9231C634.949 67.0191 636.153 67.2919 637.168 66.8755C637.739 66.6458 638.294 65.7127 638.896 64.7221C639.192 65.2212 639.525 65.7009 639.895 66.1577L641.845 68.5839C642.252 69.0867 642.854 69.4312 643.531 69.5484C644.207 69.6656 644.907 69.5467 645.491 69.2156L647.647 67.9666C648.152 67.6539 648.524 67.195 648.702 66.6654C648.881 66.1358 648.855 65.567 648.63 65.0523Z" fill="#F6F6F6"/>
<path opacity="0.3" d="M597.123 36.7998L595.189 36.9434L583.315 62.8992C583.964 62.9415 584.616 62.8931 585.249 62.7556C585.249 62.7556 600.722 57.53 605.398 55.5776C602.259 49.7059 597.123 36.7998 597.123 36.7998Z" fill="#00C4C9"/>
<path d="M575.452 43.6046C576.894 50.3896 579.573 56.91 583.378 62.8992C589.18 61.0903 598.851 57.6736 603.543 55.7211C600.389 49.5981 597.59 43.3304 595.157 36.9434C590.195 37.2448 579.304 41.0205 575.452 43.6046Z" fill="#F6F6F6"/>
<path opacity="0.3" d="M587.231 49.2179C586.999 49.9199 586.542 50.5439 585.919 51.011C585.295 51.478 584.533 51.7671 583.728 51.8417C582.923 51.9162 582.112 51.7729 581.397 51.4298C580.682 51.0867 580.095 50.5592 579.711 49.9142C579.327 49.2692 579.163 48.5355 579.24 47.8061C579.317 47.0766 579.631 46.3842 580.142 45.8163C580.653 45.2484 581.339 44.8306 582.113 44.6158C582.886 44.401 583.713 44.3989 584.488 44.6096C585.526 44.8918 586.398 45.5357 586.912 46.3998C587.427 47.2639 587.541 48.2774 587.231 49.2179Z" fill="#00C4C9"/>
<path opacity="0.6" d="M590.258 44.2795C590.197 44.5191 590.056 44.7362 589.856 44.9023C589.655 45.0684 589.404 45.1758 589.135 45.2102C588.866 45.2447 588.592 45.2047 588.348 45.0955C588.105 44.9863 587.903 44.8129 587.77 44.5982C587.638 44.3835 587.58 44.1375 587.604 43.8924C587.628 43.6473 587.734 43.4146 587.907 43.2249C588.08 43.0352 588.313 42.8973 588.574 42.8293C588.835 42.7613 589.113 42.7663 589.371 42.8439C589.692 42.9369 589.962 43.1368 590.127 43.4033C590.292 43.6697 590.339 43.9828 590.258 44.2795Z" fill="#00C4C9"/>
<path opacity="0.6" d="M593.809 43.0305C593.772 43.197 593.697 43.3547 593.589 43.4934C593.48 43.6321 593.341 43.7487 593.18 43.8359C593.019 43.9231 592.84 43.9788 592.653 43.9996C592.467 44.0203 592.278 44.0057 592.099 43.9565C591.919 43.9073 591.753 43.8247 591.61 43.7139C591.468 43.6032 591.353 43.4667 591.272 43.3133C591.191 43.1599 591.147 42.993 591.142 42.8231C591.136 42.6533 591.17 42.4843 591.241 42.327C591.292 42.1751 591.375 42.0338 591.486 41.9111C591.598 41.7884 591.734 41.6868 591.889 41.6121C592.044 41.5374 592.213 41.4911 592.388 41.4758C592.562 41.4605 592.738 41.4766 592.906 41.5231C593.245 41.6162 593.53 41.8266 593.699 42.1088C593.869 42.3909 593.908 42.7221 593.809 43.0305Z" fill="#00C4C9"/>
<path opacity="0.5" d="M598.788 54.2139L584.123 59.4538L583.251 56.841L597.9 51.6011L598.788 54.2139Z" fill="#00C4C9"/>
<path d="M368.958 436.396C371.007 435.068 373.31 434.35 375.66 434.305C378.009 434.261 380.331 434.892 382.417 436.142C384.503 437.392 386.287 439.222 387.609 441.466C388.931 443.711 389.75 446.3 389.991 449C381.398 449 372.974 446.69 368.958 436.396Z" fill="#EBEBEB"/>
<path d="M378.964 426.22C381.854 427.316 384.934 427.564 387.928 426.942C390.921 426.321 393.733 424.848 396.112 422.658C398.49 420.467 400.36 417.628 401.552 414.395C402.744 411.162 403.222 407.637 402.942 404.137C392.025 406.615 381.781 412.003 378.964 426.22Z" fill="#EBEBEB"/>
<path d="M341.552 443.022C341.724 442.923 341.904 442.84 342.088 442.777L343.662 442.167C345.024 441.656 346.998 440.909 349.423 439.935C354.281 437.969 360.943 435.177 368.142 431.568C371.724 429.749 375.093 427.901 378.122 426.131C381.151 424.362 383.797 422.612 385.993 421.068C387.721 419.868 389.388 418.555 390.987 417.135C392.11 416.152 392.689 415.454 392.689 415.493C392.578 415.673 392.449 415.838 392.306 415.985C391.922 416.446 391.515 416.883 391.089 417.292C389.523 418.792 387.872 420.169 386.146 421.412C383.976 423.005 381.313 424.755 378.301 426.584C375.289 428.412 371.902 430.251 368.303 432.08C361.113 435.698 354.417 438.47 349.533 440.319C347.091 441.253 345.1 441.941 343.722 442.393L342.131 442.914C341.943 442.979 341.748 443.015 341.552 443.022Z" fill="#E0E0E0"/>
<path d="M380.019 442.177C380.019 442.255 378.981 441.449 377.271 440.377C375.037 438.993 372.677 437.898 370.235 437.113C367.784 436.345 365.267 435.9 362.73 435.786C360.79 435.698 359.573 435.786 359.573 435.707C359.85 435.613 360.136 435.561 360.424 435.55C361.196 435.455 361.971 435.413 362.747 435.422C367.91 435.448 372.976 437.049 377.433 440.063C378.104 440.513 378.752 441.009 379.373 441.547C379.614 441.72 379.832 441.932 380.019 442.177Z" fill="#E0E0E0"/>
<path d="M177.285 397.973C176.245 401.178 175.91 404.631 176.312 408.022C176.713 411.413 177.838 414.636 179.584 417.4C181.331 420.164 183.645 422.384 186.318 423.858C188.991 425.332 191.94 426.016 194.898 425.846C193.264 413.478 189.146 401.719 177.285 397.973Z" fill="#EBEBEB"/>
<path d="M175.609 391.896C175.677 391.896 175.966 393.253 176.588 395.406C177.395 398.213 178.405 400.937 179.608 403.547C180.827 406.148 182.23 408.627 183.803 410.96C185.02 412.75 185.845 413.792 185.794 413.851C185.555 413.665 185.337 413.443 185.147 413.192C184.747 412.74 184.203 412.062 183.565 411.226C180.218 406.647 177.74 401.308 176.29 395.554C176.017 394.453 175.822 393.588 175.728 392.919C175.641 392.588 175.601 392.243 175.609 391.896Z" fill="#E0E0E0"/>
<path d="M7.24926 149.876C5.63357 154.845 5.11338 160.2 5.73559 165.459C6.35779 170.717 8.10282 175.715 10.8134 180C13.5239 184.285 17.1147 187.723 21.2621 190.004C25.4095 192.286 29.983 193.338 34.5704 193.068C32.0178 173.896 25.6619 155.707 7.28329 149.876" fill="#EBEBEB"/>
<path d="M4.64551 140.477C4.81837 140.95 4.95227 141.44 5.04541 141.942C5.26663 142.925 5.61549 144.262 6.08346 145.944C7.31796 150.306 8.87805 154.537 10.7462 158.587C12.6286 162.635 14.8152 166.485 17.2808 170.091C18.2337 171.467 18.9825 172.568 19.5866 173.306C19.8947 173.678 20.179 174.075 20.4375 174.495C20.0867 174.18 19.762 173.828 19.4675 173.443C18.8634 172.735 18.0295 171.673 17.051 170.317C11.9129 163.198 8.0828 154.946 5.79417 146.062C5.36023 144.37 5.05392 142.974 4.88375 142.011C4.77309 141.507 4.69348 140.994 4.64551 140.477Z" fill="#E0E0E0"/>
<path d="M36.0003 345.569C33.6912 347.716 31.8804 350.492 30.7309 353.648C29.5814 356.805 29.1294 360.242 29.4155 363.65C29.7016 367.059 30.7169 370.331 32.3699 373.173C34.0228 376.015 36.2617 378.338 38.8847 379.932C42.9263 368.32 44.5599 355.785 36.0003 345.569Z" fill="#EBEBEB"/>
<path d="M37.2257 339.355C37.2938 339.355 36.9449 340.742 36.528 342.954C35.4264 348.745 35.2104 354.715 35.8898 360.592C36.1451 362.844 36.4003 364.23 36.3238 364.25C36.2018 363.935 36.1133 363.605 36.06 363.266C35.9154 362.647 35.7452 361.743 35.575 360.622C34.7224 354.709 34.9426 348.655 36.2217 342.846C36.4684 341.735 36.7067 340.879 36.8939 340.25C36.9744 339.938 37.0858 339.638 37.2257 339.355Z" fill="#E0E0E0"/>
<path d="M193.903 96.9613C196.555 98.4871 199.494 99.227 202.455 99.1143C205.415 99.0017 208.306 98.0402 210.865 96.3162C213.425 94.5922 215.573 92.1599 217.117 89.2382C218.661 86.3165 219.552 82.997 219.709 79.5786C208.886 80.1784 198.353 83.708 193.903 96.9613Z" fill="#EBEBEB"/>
<path d="M188.5 98.3184C188.5 98.2398 189.708 98.0432 191.623 97.5516C196.635 96.286 201.417 94.0203 205.755 90.8561C207.457 89.6369 208.402 88.8012 208.444 88.8897C208.264 89.1502 208.052 89.3787 207.814 89.5681C207.389 89.981 206.742 90.5513 205.926 91.1805C201.639 94.5526 196.791 96.8532 191.691 97.935C190.712 98.1415 189.921 98.2594 189.368 98.3184C189.08 98.3634 188.788 98.3634 188.5 98.3184Z" fill="#E0E0E0"/>
<path d="M171.849 95.1818C175.668 94.2345 179.224 92.2043 182.196 89.2742C185.169 86.344 187.463 82.6058 188.874 78.3961C190.285 74.1864 190.768 69.6373 190.28 65.1583C189.791 60.6793 188.346 56.4111 186.075 52.7378C175.354 63.6413 166.999 77.3174 171.849 95.1818Z" fill="#EBEBEB"/>
<path d="M167.211 101.651C167.422 101.298 167.662 100.969 167.926 100.668C168.411 100.048 169.1 99.1242 169.917 97.9641C174.208 91.9075 177.53 85.0157 179.728 77.6122C180.153 76.1964 180.468 75.0362 180.672 74.23C180.757 73.8038 180.88 73.3888 181.038 72.9912C181.012 73.428 180.943 73.8601 180.834 74.2792C180.689 75.1051 180.408 76.2456 179.983 77.7203C177.942 85.2513 174.586 92.2182 170.121 98.1902C169.271 99.3307 168.539 100.225 168.011 100.805C167.771 101.119 167.503 101.402 167.211 101.651Z" fill="#E0E0E0"/>
<path d="M241.645 431.981C242.451 433.818 243.641 435.395 245.105 436.569C246.57 437.744 248.264 438.48 250.035 438.711C251.807 438.942 253.6 438.661 255.254 437.893C256.908 437.125 258.372 435.894 259.513 434.311C254.101 430.103 247.907 427.429 241.645 431.981Z" fill="#EBEBEB"/>
<path d="M238.632 430.369C240.623 431.388 242.669 432.255 244.758 432.964C246.883 433.507 249.038 433.881 251.208 434.085C250.574 434.246 249.922 434.293 249.276 434.223C246.144 434.1 243.072 433.19 240.274 431.558C239.678 431.259 239.125 430.858 238.632 430.369Z" fill="#E0E0E0"/>
<path d="M320.519 78.9787C321.617 80.6044 323.048 81.8888 324.682 82.7162C326.317 83.5435 328.104 83.8879 329.883 83.7182C331.661 83.5485 333.375 82.87 334.87 81.744C336.365 80.6179 337.594 79.0797 338.447 77.268C332.431 74.3184 325.913 73.1091 320.519 78.9787Z" fill="#EBEBEB"/>
<path d="M317.294 78.0747C321.521 79.3534 325.928 79.6376 330.253 78.9104C329.655 79.2013 329.025 79.3901 328.381 79.4708C325.285 80.0534 322.117 79.8487 319.098 78.8711C318.465 78.7124 317.857 78.4439 317.294 78.0747Z" fill="#E0E0E0"/>
<path d="M524.93 109.222C527.784 110.129 530.789 110.203 533.674 109.437C536.559 108.67 539.234 107.088 541.458 104.831C543.683 102.574 545.388 99.7139 546.419 96.5075C547.45 93.3011 547.776 89.8488 547.367 86.4609C536.85 89.4105 527.099 95.2408 524.93 109.222Z" fill="#EBEBEB"/>
<path d="M519.842 111.7C519.842 111.621 520.973 111.159 522.777 110.254C527.487 107.905 531.806 104.624 535.54 100.56C536.978 98.9968 537.795 97.9546 537.854 98.0136C537.715 98.3038 537.544 98.5715 537.344 98.81C536.995 99.3114 536.493 99.9996 535.761 100.776C532.11 105.031 527.732 108.36 522.905 110.549C521.986 110.962 521.203 111.267 520.693 111.434C520.42 111.563 520.134 111.653 519.842 111.7Z" fill="#E0E0E0"/>
<path d="M545.086 408.886C550.107 407.543 554.76 404.779 558.627 400.843C562.494 396.908 565.454 391.923 567.241 386.338C569.028 380.753 569.585 374.742 568.864 368.846C568.143 362.95 566.164 357.353 563.107 352.56C549.128 367.199 538.356 385.408 545.086 408.886Z" fill="#EBEBEB"/>
<path d="M539.054 417.538C539.344 417.067 539.662 416.62 540.007 416.201C540.645 415.375 541.539 414.146 542.602 412.603C543.666 411.059 544.891 409.162 546.159 406.999C547.427 404.836 548.711 402.368 549.962 399.713C551.213 397.059 552.234 394.443 553.11 392.025C553.987 389.606 554.676 387.394 555.195 385.506C555.714 383.619 556.105 382.085 556.352 381.013C556.459 380.449 556.607 379.896 556.795 379.361C556.74 379.935 556.649 380.504 556.522 381.062C556.327 382.154 555.978 383.707 555.493 385.614C555.008 387.522 554.336 389.763 553.493 392.212C552.651 394.66 551.587 397.275 550.354 399.959C549.176 402.467 547.889 404.905 546.499 407.264C545.197 409.427 543.947 411.305 542.849 412.829C541.751 414.353 540.807 415.552 540.135 416.339C539.803 416.771 539.441 417.172 539.054 417.538Z" fill="#E0E0E0"/>
<path d="M429.556 284.926C424.188 250.269 398.432 220.036 368.065 217.146C351.516 215.592 334.881 221.619 318.4 219.319C304.432 217.304 291.578 209.474 282.247 197.295C268.633 179.401 264.03 153.947 249.617 136.918C229.758 113.43 195.102 113.066 170.938 130.34C146.773 147.615 132.164 178.792 125.476 210.696L125.213 220.4C123.758 253.494 131.296 292.005 147.914 321.501C164.752 351.39 175.822 363.778 206.504 385.221C232.557 403.469 283.575 411.492 314.035 412.337C344.496 413.183 375.782 402.702 398.696 379.479C421.609 356.256 434.934 319.584 429.556 284.926Z" fill="#01C8CD"/>
<g opacity="0.8">
<path opacity="0.8" d="M429.556 284.926C424.188 250.269 398.432 220.036 368.065 217.146C351.516 215.592 334.881 221.619 318.4 219.319C304.432 217.304 291.578 209.474 282.247 197.295C268.633 179.401 264.03 153.947 249.617 136.918C229.758 113.43 195.102 113.066 170.938 130.34C146.773 147.615 132.164 178.792 125.476 210.696L125.213 220.4C123.758 253.494 131.296 292.005 147.914 321.501C164.752 351.39 175.822 363.778 206.504 385.221C232.557 403.469 283.575 411.492 314.035 412.337C344.496 413.183 375.782 402.702 398.696 379.479C421.609 356.256 434.934 319.584 429.556 284.926Z" fill="white"/>
</g>
<path d="M459.417 408.665C460.582 399.395 455.023 390.79 447.001 389.444C438.979 388.099 431.531 394.522 430.367 403.792C429.202 413.061 434.761 421.667 442.783 423.012C450.805 424.358 458.252 417.934 459.417 408.665Z" fill="#01C8CD"/>
<path opacity="0.8" d="M459.417 408.665C460.582 399.395 455.023 390.79 447.001 389.444C438.979 388.099 431.531 394.522 430.367 403.792C429.202 413.061 434.761 421.667 442.783 423.012C450.805 424.358 458.252 417.934 459.417 408.665Z" fill="white"/>
<path d="M352.048 280.178C352.326 314.038 345.939 339.929 332.886 357.849C319.834 375.769 301.966 384.847 279.282 385.083C256.479 385.339 238.353 376.661 224.904 359.049C211.455 341.436 204.585 315.703 204.296 281.849L203.803 222.307C203.519 188.578 209.906 162.687 222.964 144.636C236.022 126.585 253.949 117.448 276.747 117.225C299.436 116.969 317.511 125.71 330.972 143.446C344.433 161.183 351.299 186.913 351.571 220.636L352.048 280.178ZM313.904 214.383C313.717 193.061 310.503 177.317 304.263 167.151C298.024 156.985 288.948 151.964 277.036 152.088C265.164 152.219 256.204 157.44 250.157 167.75C244.111 178.061 241.158 193.874 241.3 215.189L241.895 287.542C242.071 308.975 245.324 324.807 251.655 335.039C257.985 345.271 267.081 350.321 278.942 350.19C290.803 350.059 299.734 344.838 305.735 334.528C311.737 324.218 314.65 308.287 314.474 286.735L313.904 214.383Z" fill="#01C8CD"/>
<g opacity="0.4">
<path opacity="0.4" d="M352.048 280.178C352.326 314.038 345.939 339.929 332.886 357.849C319.834 375.769 301.966 384.847 279.282 385.083C256.479 385.339 238.353 376.661 224.904 359.049C211.455 341.436 204.585 315.703 204.296 281.849L203.803 222.307C203.519 188.578 209.906 162.687 222.964 144.636C236.022 126.585 253.949 117.448 276.747 117.225C299.436 116.969 317.511 125.71 330.972 143.446C344.433 161.183 351.299 186.913 351.571 220.636L352.048 280.178ZM313.904 214.383C313.717 193.061 310.503 177.317 304.263 167.151C298.024 156.985 288.948 151.964 277.036 152.088C265.164 152.219 256.204 157.44 250.157 167.75C244.111 178.061 241.158 193.874 241.3 215.189L241.895 287.542C242.071 308.975 245.324 324.807 251.655 335.039C257.985 345.271 267.081 350.321 278.942 350.19C290.803 350.059 299.734 344.838 305.735 334.528C311.737 324.218 314.65 308.287 314.474 286.735L313.904 214.383Z" fill="black"/>
</g>
<path d="M373.711 279.942C373.994 313.796 367.607 339.687 354.549 357.613C341.491 375.54 323.623 384.618 300.945 384.848C278.142 385.103 260.016 376.422 246.567 358.803C233.118 341.184 226.257 315.445 225.984 281.584L225.491 222.042C225.207 188.312 231.594 162.422 244.652 144.371C257.71 126.319 275.638 117.179 298.435 116.95C321.125 116.707 339.2 125.448 352.66 143.171C366.121 160.895 372.962 186.638 373.183 220.4L373.711 279.942ZM335.567 214.147C335.385 192.832 332.158 177.101 325.884 166.954C319.61 156.808 310.534 151.787 298.656 151.892C286.784 152.03 277.824 157.25 271.778 167.554C265.731 177.858 262.793 193.674 262.963 215.003L263.567 287.345C263.748 308.785 267.002 324.621 273.326 334.853C279.651 345.084 288.747 350.135 300.613 350.004C312.474 349.866 321.405 344.645 327.407 334.341C333.408 324.038 336.318 308.104 336.137 286.539L335.567 214.147Z" fill="#01C8CD"/>
<path d="M225.602 225.582C225.644 225.709 220.616 228.02 214.37 230.733C208.125 233.447 203.011 235.492 203.011 235.404C203.011 235.315 207.997 232.965 214.243 230.252C220.488 227.538 225.559 225.444 225.602 225.582Z" fill="#01C8CD"/>
<path d="M226.836 249.109C226.878 249.237 221.85 251.547 215.596 254.261C209.342 256.974 204.254 259.059 204.211 258.931C204.169 258.803 209.197 256.493 215.443 253.779C221.688 251.065 226.836 248.971 226.836 249.109Z" fill="#01C8CD"/>
<path d="M228.103 272.637C228.145 272.765 223.117 275.075 216.863 277.789C210.609 280.502 205.564 282.587 205.479 282.459C205.394 282.331 210.465 280.02 216.71 277.307C222.955 274.593 228.06 272.499 228.103 272.637Z" fill="#01C8CD"/>
<path d="M229.388 296.164C229.431 296.292 224.402 298.602 218.148 301.316C211.894 304.03 206.798 306.114 206.755 305.986C206.713 305.858 211.75 303.548 217.995 300.834C224.24 298.121 229.311 296.026 229.388 296.164Z" fill="#01C8CD"/>
<path d="M230.605 319.692C230.36 319.874 230.097 320.022 229.822 320.134C229.312 320.39 228.563 320.744 227.644 321.167C225.789 322.022 223.228 323.133 220.386 324.401C217.544 325.67 214.958 326.722 213.077 327.489C212.141 327.872 211.375 328.177 210.848 328.373C210.576 328.505 210.29 328.591 209.997 328.629C210.241 328.444 210.504 328.296 210.78 328.187C211.29 327.931 212.031 327.577 212.958 327.203C214.804 326.348 217.374 325.237 220.216 323.969C223.058 322.7 225.644 321.639 227.525 320.882C228.461 320.498 229.226 320.193 229.754 319.997C230.023 319.846 230.309 319.743 230.605 319.692Z" fill="#01C8CD"/>
<path d="M236.416 341.214C235.596 341.724 234.742 342.162 233.864 342.521C232.247 343.269 230.009 344.272 227.533 345.353C225.057 346.435 222.794 347.378 221.16 348.037C220.288 348.447 219.389 348.775 218.472 349.02C219.291 348.507 220.145 348.069 221.024 347.713C222.632 346.956 224.87 345.953 227.355 344.881C229.839 343.809 232.085 342.856 233.728 342.197C234.598 341.782 235.498 341.453 236.416 341.214Z" fill="#01C8CD"/>
<path d="M248.864 360.956C248.132 361.427 247.366 361.825 246.575 362.146C245.137 362.814 243.172 363.709 240.943 364.673C238.713 365.636 236.688 366.472 235.259 367.052C234.482 367.415 233.679 367.701 232.859 367.907C233.59 367.431 234.356 367.033 235.148 366.718C236.578 366.049 238.552 365.154 240.781 364.191C243.01 363.227 245.035 362.392 246.465 361.802C247.241 361.438 248.044 361.155 248.864 360.956Z" fill="#01C8CD"/>
<path d="M269.549 373.905C268.815 374.369 268.049 374.764 267.26 375.085C265.822 375.763 263.856 376.658 261.627 377.611C259.398 378.565 257.373 379.411 255.943 380.001C255.167 380.364 254.364 380.647 253.544 380.846C254.276 380.375 255.042 379.977 255.833 379.656C257.271 378.988 259.236 378.093 261.465 377.13C263.695 376.166 265.72 375.33 267.149 374.75C267.924 374.381 268.727 374.098 269.549 373.905Z" fill="#01C8CD"/>
<path d="M331.934 323.694C331.985 323.821 325.527 327.302 317.512 331.471C309.497 335.639 302.954 338.903 302.903 338.776C302.852 338.648 309.31 335.167 317.367 330.999C325.425 326.83 331.883 323.566 331.934 323.694Z" fill="#01C8CD"/>
<path d="M336.171 303.538C336.222 303.666 330.887 306.556 324.259 309.998C317.631 313.439 312.219 316.133 312.168 316.005C312.117 315.877 317.444 312.977 324.08 309.535C330.717 306.094 336.12 303.41 336.171 303.538Z" fill="#01C8CD"/>
<path d="M338.119 280.895C338.17 281.023 332.835 283.914 326.207 287.355C319.579 290.796 314.167 293.49 314.116 293.362C314.065 293.234 319.391 290.334 326.028 286.893C332.665 283.452 338.068 280.718 338.119 280.895Z" fill="#01C8CD"/>
<path d="M340.068 258.243C340.119 258.371 334.792 261.271 328.156 264.712C321.519 268.153 316.116 270.837 316.065 270.71C316.014 270.582 321.349 267.691 327.977 264.25C334.605 260.809 339.999 258.105 340.068 258.243Z" fill="#01C8CD"/>
<path d="M342.025 235.6C342.067 235.728 336.741 238.629 330.113 242.07C323.484 245.511 318.073 248.195 318.022 248.067C317.971 247.939 323.306 245.049 329.934 241.598C336.562 238.147 341.974 235.492 342.025 235.6Z" fill="#01C8CD"/>
<path d="M338.119 215.435C338.17 215.563 332.835 218.463 326.207 221.904C319.579 225.346 314.167 228.03 314.116 227.902C314.065 227.774 319.391 224.874 326.028 221.432C332.665 217.991 338.068 215.307 338.119 215.435Z" fill="#01C8CD"/>
<path d="M338.119 193.727C338.17 193.854 332.835 196.755 326.207 200.196C319.579 203.637 314.167 206.321 314.116 206.193C314.065 206.065 319.391 203.165 326.028 199.724C332.665 196.283 338.068 193.599 338.119 193.727Z" fill="#01C8CD"/>
<path d="M336.171 173.286C336.222 173.413 330.887 176.304 324.259 179.745C317.631 183.186 312.219 185.88 312.168 185.752C312.117 185.625 317.444 182.724 324.08 179.283C330.717 175.842 336.12 173.158 336.171 173.286Z" fill="#01C8CD"/>
<path d="M319.366 159.04C317.03 160.535 314.624 161.881 312.16 163.071C309.753 164.413 307.285 165.601 304.766 166.63C307.099 165.127 309.505 163.781 311.972 162.599C314.379 161.256 316.847 160.068 319.366 159.04Z" fill="#01C8CD"/>
<path d="M310.382 150.319C308.043 151.806 305.637 153.149 303.175 154.34C300.768 155.682 298.3 156.871 295.781 157.899C298.117 156.41 300.523 155.071 302.988 153.888C305.394 152.542 307.862 151.351 310.382 150.319Z" fill="#01C8CD"/>
<path d="M226.563 197.059C226.606 197.187 221.577 199.498 215.332 202.211C209.086 204.925 203.981 207.019 203.939 206.881C203.896 206.744 208.925 204.443 215.179 201.729C221.432 199.016 226.521 196.931 226.563 197.059Z" fill="#01C8CD"/>
<path d="M232.792 167.721C232.843 167.849 227.38 170.337 220.616 173.286C213.851 176.236 208.312 178.497 208.27 178.369C208.227 178.241 213.681 175.744 220.454 172.804C227.227 169.865 232.792 167.584 232.792 167.721Z" fill="#01C8CD"/>
<path d="M249.187 138.678C249.23 138.816 242.312 141.932 233.736 145.659C225.159 149.385 218.174 152.295 218.131 152.167C218.089 152.039 225.006 148.903 233.583 145.177C242.159 141.45 249.145 138.55 249.187 138.678Z" fill="#01C8CD"/>
<path d="M370.044 323.979L369.686 323.841L368.665 323.379C368.214 323.192 367.627 323.045 366.964 322.828C366.169 322.649 365.364 322.534 364.556 322.484C360.923 322.219 355.477 323.743 350.21 328.305C347.359 330.801 344.804 333.72 342.612 336.986C340.17 340.437 337.779 344.34 335.065 348.273C332.303 352.492 328.997 356.195 325.263 359.255C321.175 362.441 316.555 364.605 311.7 365.607C306.845 366.617 301.86 366.426 297.074 365.046C292.656 363.707 288.364 361.866 284.26 359.55C280.304 357.436 276.602 355.283 273.08 353.504C269.804 351.832 266.403 350.505 262.921 349.541C260.049 348.757 257.107 348.368 254.157 348.381C251.93 348.401 249.714 348.748 247.563 349.414C246.21 349.872 244.894 350.468 243.632 351.193L242.662 351.783C242.555 351.86 242.44 351.922 242.321 351.97L242.636 351.744L243.589 351.105C244.841 350.333 246.154 349.704 247.512 349.227C249.673 348.522 251.903 348.142 254.148 348.096C257.122 348.052 260.09 348.418 262.989 349.187C266.488 350.14 269.905 351.456 273.199 353.12C276.756 354.89 280.457 357.053 284.405 359.137C288.493 361.43 292.768 363.248 297.168 364.564C301.901 365.93 306.831 366.118 311.632 365.115C316.427 364.124 320.991 361.991 325.033 358.852C328.74 355.827 332.023 352.163 334.767 347.988C337.481 344.055 339.872 340.181 342.348 336.721C344.56 333.445 347.134 330.519 350.006 328.019C355.349 323.458 360.871 321.963 364.547 322.297C365.365 322.359 366.178 322.487 366.981 322.681C367.661 322.927 368.248 323.084 368.682 323.29L369.695 323.802L370.044 323.979Z" fill="white"/>
<path d="M375.412 258.4C375.412 258.45 374.808 258.538 373.753 258.941C372.286 259.561 370.902 260.419 369.643 261.488C368.027 262.795 366.24 264.624 364.189 266.512C361.926 268.551 359.475 270.296 356.88 271.713C352.171 274.321 347.067 275.844 341.854 276.196C340.859 276.294 339.948 276.265 339.157 276.284C338.366 276.304 337.685 276.226 337.132 276.176L335.847 276.029C335.699 276.026 335.553 275.996 335.413 275.94C335.56 275.917 335.709 275.917 335.856 275.94L337.14 275.99H339.157C339.948 275.94 340.859 275.99 341.829 275.832C346.986 275.372 352.025 273.816 356.693 271.241C359.257 269.833 361.687 268.12 363.942 266.128C366.01 264.28 367.805 262.461 369.473 261.212C370.773 260.149 372.208 259.326 373.727 258.774C374.141 258.638 374.561 258.533 374.987 258.459C375.125 258.415 375.268 258.395 375.412 258.4Z" fill="white"/>
<path d="M264.274 281.18C264.119 281.172 263.965 281.146 263.814 281.102C263.508 281.023 263.057 280.945 262.487 280.758C260.889 280.211 259.357 279.435 257.926 278.447C255.828 276.959 253.836 275.279 251.97 273.423C249.835 271.378 247.554 269.048 244.942 266.964C242.503 264.972 239.765 263.522 236.868 262.687C232.886 261.554 228.724 261.575 224.751 262.746C223.62 263.08 223.007 263.336 222.999 263.287C223.13 263.187 223.273 263.111 223.424 263.06C223.713 262.933 224.139 262.736 224.709 262.549C226.302 262.01 227.944 261.68 229.601 261.566C232.071 261.355 234.554 261.591 236.961 262.264C239.914 263.092 242.706 264.556 245.189 266.58C247.835 268.694 250.115 271.044 252.234 273.099C254.072 274.96 256.029 276.659 258.088 278.182C259.489 279.18 260.981 279.995 262.538 280.61C263.125 280.765 263.704 280.955 264.274 281.18Z" fill="white"/>
<path d="M264.418 188.24C263.96 188.486 263.484 188.686 262.997 188.84C262.439 189.067 261.871 189.261 261.295 189.42C260.623 189.616 259.866 189.882 259.006 190.059C258.147 190.236 257.22 190.482 256.199 190.629C255.178 190.777 254.097 190.914 252.948 191.032C250.454 191.215 247.951 191.179 245.461 190.924C242.973 190.637 240.507 190.134 238.084 189.42C236.978 189.056 235.914 188.722 234.953 188.319C233.991 187.916 233.089 187.542 232.289 187.159C231.49 186.775 230.775 186.372 230.145 186.038C229.516 185.703 228.997 185.379 228.571 185.104C228.121 184.844 227.689 184.545 227.278 184.209C227.749 184.41 228.207 184.649 228.648 184.927C229.082 185.173 229.618 185.477 230.247 185.782C230.877 186.087 231.592 186.48 232.409 186.814C233.225 187.149 234.11 187.571 235.072 187.916C236.033 188.26 237.08 188.614 238.186 188.958C242.998 190.36 247.968 190.901 252.923 190.56C254.063 190.452 255.143 190.383 256.156 190.206C257.169 190.029 258.096 189.882 258.947 189.705C259.798 189.528 260.555 189.312 261.227 189.145C261.899 188.977 262.478 188.8 262.929 188.653C263.416 188.474 263.914 188.336 264.418 188.24Z" fill="white"/>
<path d="M370.58 187.994C370.454 187.941 370.334 187.872 370.222 187.788L369.235 187.129C368.723 186.769 368.195 186.44 367.653 186.146C366.953 185.712 366.235 185.322 365.5 184.976L364.224 184.356C363.773 184.15 363.296 183.993 362.803 183.796C361.833 183.383 360.752 183.098 359.621 182.754C354.674 181.453 349.542 181.403 344.577 182.606C343.497 182.871 342.429 183.199 341.378 183.589C340.885 183.776 340.4 183.924 339.949 184.12L338.664 184.71C337.925 185.044 337.2 185.422 336.494 185.841C335.946 186.129 335.415 186.457 334.903 186.824L333.899 187.463C333.669 187.601 333.542 187.67 333.533 187.65C333.63 187.542 333.739 187.45 333.857 187.375L334.809 186.647C335.313 186.26 335.839 185.911 336.384 185.605C337.082 185.152 337.804 184.748 338.545 184.396L339.83 183.766C340.281 183.56 340.774 183.403 341.268 183.206C342.325 182.794 343.402 182.449 344.492 182.174C349.512 180.902 354.715 180.955 359.714 182.331C360.854 182.685 361.943 182.99 362.922 183.422C363.415 183.629 363.9 183.796 364.343 184.022L365.628 184.671C366.36 185.045 367.076 185.462 367.772 185.92C368.308 186.241 368.825 186.602 369.32 187.001L370.273 187.748C370.486 187.876 370.631 187.974 370.58 187.994Z" fill="white"/>
<path d="M318.558 121.207C318.367 121.374 318.162 121.519 317.946 121.64L316.176 122.77C314.602 123.753 312.321 125.12 309.463 126.772C303.762 130.026 295.755 134.48 286.277 137.253C281.82 138.547 277.256 139.279 272.663 139.435C268.914 139.562 265.166 139.189 261.491 138.324C259.014 137.75 256.592 136.897 254.259 135.778C253.408 135.404 252.821 135.011 252.395 134.795C252.175 134.685 251.962 134.557 251.757 134.411C251.99 134.481 252.215 134.58 252.429 134.706C252.872 134.893 253.485 135.257 254.327 135.601C256.668 136.643 259.086 137.439 261.551 137.98C265.208 138.788 268.933 139.117 272.654 138.963C277.211 138.781 281.737 138.039 286.158 136.751C295.577 133.998 303.592 129.623 309.318 126.447L316.125 122.583L317.878 121.541C318.098 121.413 318.325 121.301 318.558 121.207Z" fill="white"/>
<path d="M147.758 292.517L176.202 293.952L174.883 328.787L146.439 327.351L144.253 385.231L106.815 383.343L109.001 325.463L12.4204 320.587L12.497 294.041L115.451 123.164L154.097 125.13L147.758 292.517ZM49.9093 287.601L110.32 290.649L114.302 185.075L113.392 184.672L109.988 192.193L49.9093 287.601Z" fill="#01C8CD"/>
<g opacity="0.4">
<path opacity="0.4" d="M147.758 292.517L176.202 293.952L174.883 328.787L146.439 327.351L144.253 385.231L106.815 383.343L109.001 325.463L12.4204 320.587L12.497 294.041L115.451 123.164L154.097 125.13L147.758 292.517ZM49.9093 287.601L110.32 290.649L114.302 185.075L113.392 184.672L109.988 192.193L49.9093 287.601Z" fill="black"/>
</g>
<path d="M171.53 293.716L199.974 295.151L198.655 329.986L170.211 328.55L168.024 386.43L130.586 384.542L132.773 326.662L36.1494 321.747L36.226 295.201L139.197 124.392L177.852 126.358L171.53 293.716ZM73.6808 288.8L134.134 291.848L138.116 186.274L137.206 185.871L133.803 193.392L73.6808 288.8Z" fill="#01C8CD"/>
<path d="M36.7447 300.303C36.459 300.542 36.1507 300.744 35.8258 300.903C35.2217 301.257 34.3368 301.748 33.2732 302.338C31.0865 303.528 28.032 305.111 24.62 306.782C21.2081 308.454 18.1024 309.87 15.8391 310.863C14.7075 311.354 13.7801 311.738 13.1419 311.993C12.8153 312.15 12.4762 312.268 12.1294 312.347C12.4279 312.125 12.7477 311.944 13.0824 311.806L15.72 310.518L24.4158 306.281L33.1116 301.984L35.7578 300.687C36.0746 300.52 36.4053 300.392 36.7447 300.303Z" fill="#01C8CD"/>
<path d="M50.5968 270.887C50.1844 271.179 49.7551 271.439 49.312 271.663C48.4611 272.135 47.2529 272.804 45.7383 273.63C42.7008 275.223 38.489 277.356 33.8263 279.647C29.1636 281.938 24.8498 283.894 21.7782 285.29C20.2296 285.998 18.9703 286.549 18.0854 286.913C17.6407 287.132 17.1793 287.303 16.707 287.424C17.132 287.156 17.5727 286.923 18.0259 286.726L21.659 284.956L33.6647 279.126L45.6448 273.227L49.2779 271.447C49.7015 271.213 50.143 271.026 50.5968 270.887Z" fill="#01C8CD"/>
<path d="M67.5034 244.606C67.0753 244.911 66.6255 245.175 66.159 245.393C65.3082 245.864 64.0063 246.533 62.4237 247.359C59.25 248.961 54.8511 251.095 49.9672 253.386C45.0832 255.677 40.6077 257.672 37.383 259.078C35.7663 259.776 34.4475 260.327 33.5371 260.691C33.0722 260.911 32.5909 261.083 32.0991 261.202C32.545 260.935 33.0054 260.702 33.4775 260.504L37.2723 258.734L49.797 252.904L62.2961 247.005L66.091 245.225C66.5472 244.977 67.0194 244.77 67.5034 244.606Z" fill="#01C8CD"/>
<path d="M135.223 274.928C134.933 275.16 134.622 275.354 134.296 275.508C133.692 275.852 132.807 276.324 131.701 276.894C129.506 278.044 126.443 279.568 123.031 281.171C119.619 282.774 116.496 284.121 114.233 285.104C113.093 285.576 112.174 285.949 111.535 286.195C111.208 286.34 110.869 286.448 110.523 286.519C110.819 286.307 111.136 286.135 111.467 286.008L114.122 284.769L122.869 280.719L131.582 276.589L134.228 275.341C134.546 275.161 134.879 275.023 135.223 274.928Z" fill="#01C8CD"/>
<path d="M132.467 328.943C132.189 329.175 131.889 329.369 131.574 329.523C130.986 329.858 130.127 330.339 129.064 330.91C126.936 332.06 123.958 333.584 120.666 335.177C117.373 336.77 114.327 338.126 112.157 339.11C111.051 339.581 110.157 339.955 109.536 340.191C109.219 340.344 108.888 340.456 108.549 340.525C108.838 340.312 109.146 340.137 109.468 340.004L112.021 338.765L120.529 334.724L128.97 330.595L131.523 329.356C131.824 329.181 132.141 329.042 132.467 328.943Z" fill="#01C8CD"/>
<path d="M132.075 347.88C131.811 348.106 131.526 348.298 131.225 348.45C130.637 348.794 129.778 349.266 128.672 349.846C126.545 350.987 123.567 352.511 120.265 354.113C116.964 355.716 113.935 357.063 111.757 358.046C110.659 358.518 109.766 358.892 109.136 359.137C108.824 359.294 108.495 359.404 108.158 359.462C108.449 359.257 108.757 359.086 109.077 358.951L111.629 357.712L120.138 353.671L128.587 349.541L131.139 348.303C131.435 348.117 131.749 347.975 132.075 347.88Z" fill="#01C8CD"/>
<path d="M131.684 366.806C131.417 367.032 131.132 367.226 130.833 367.386C130.246 367.73 129.386 368.202 128.28 368.773C126.145 369.923 123.175 371.447 119.874 373.04C116.573 374.632 113.543 375.989 111.365 376.972C110.268 377.444 109.366 377.818 108.745 378.054C108.429 378.204 108.101 378.316 107.766 378.388C108.054 378.174 108.363 378 108.685 377.867L111.238 376.638L119.746 372.587L128.195 368.458L130.748 367.219C131.046 367.042 131.36 366.904 131.684 366.806Z" fill="#01C8CD"/>
<path d="M135.666 254.93C135.374 255.157 135.063 255.351 134.739 255.51C134.135 255.854 133.25 256.326 132.186 256.896C129.991 258.046 126.928 259.57 123.516 261.173C120.104 262.775 116.981 264.122 114.718 265.106C113.578 265.578 112.659 265.951 112.021 266.187C111.694 266.337 111.355 266.449 111.008 266.521C111.303 266.302 111.62 266.127 111.953 266L114.607 264.762L123.354 260.721L132.067 256.591L134.713 255.352C135.017 255.173 135.336 255.031 135.666 254.93Z" fill="#01C8CD"/>
<path d="M136.109 234.932C135.816 235.159 135.506 235.353 135.181 235.512C134.577 235.846 133.692 236.328 132.586 236.898C130.391 238.048 127.328 239.572 123.916 241.165C120.504 242.758 117.39 244.115 115.118 245.098C113.978 245.57 113.059 245.933 112.421 246.179C112.094 246.329 111.755 246.441 111.408 246.514C111.705 246.293 112.026 246.118 112.361 245.992L115.007 244.754L123.754 240.713L132.467 236.583L135.113 235.345C135.431 235.165 135.765 235.027 136.109 234.932Z" fill="#01C8CD"/>
<path d="M136.551 214.934C136.284 215.15 135.999 215.334 135.7 215.484C135.13 215.809 134.288 216.261 133.241 216.811C131.14 217.913 128.23 219.378 124.979 220.892C121.729 222.406 118.751 223.713 116.59 224.608C115.509 225.051 114.633 225.404 114.037 225.591C113.725 225.738 113.4 225.843 113.067 225.906C113.353 225.699 113.659 225.531 113.978 225.405L116.53 224.225L124.86 220.38L133.165 216.448L135.717 215.268C135.983 215.121 136.263 215.008 136.551 214.934Z" fill="#01C8CD"/>
<path d="M138.508 196.243C137.149 197.093 135.725 197.794 134.253 198.337C132.829 199.038 131.35 199.581 129.837 199.96C131.196 199.107 132.62 198.403 134.092 197.856C135.515 197.155 136.994 196.615 138.508 196.243Z" fill="#01C8CD"/>
<path d="M84.3757 217.392C83.9467 217.689 83.5003 217.952 83.0399 218.178C82.189 218.65 80.8872 219.309 79.2961 220.145C76.1309 221.747 71.732 223.881 66.8395 226.171C61.9471 228.462 57.4801 230.468 54.2638 231.864C52.6472 232.562 51.3284 233.113 50.4179 233.476C49.9494 233.688 49.469 233.862 48.98 233.998C49.421 233.716 49.8822 233.48 50.3584 233.29L54.1532 231.53L66.6778 225.66L79.177 219.761L82.9633 217.982C83.4223 217.749 83.8941 217.552 84.3757 217.392Z" fill="#01C8CD"/>
<path d="M101.257 190.167C100.828 190.473 100.379 190.736 99.9122 190.954C99.0614 191.426 97.7596 192.095 96.177 192.92C93.0118 194.513 88.6043 196.657 83.7204 198.937C78.8364 201.218 74.3609 203.234 71.1447 204.63C69.5195 205.338 68.2092 205.889 67.2903 206.252C66.8275 206.47 66.3493 206.641 65.8608 206.764C66.3021 206.493 66.7599 206.259 67.2307 206.066L71.0256 204.296L83.5502 198.466L96.0578 192.566L99.8442 190.777C100.301 190.534 100.773 190.33 101.257 190.167Z" fill="#01C8CD"/>
<path d="M116.854 162.953C116.422 163.251 115.973 163.514 115.509 163.739C114.659 164.211 113.357 164.87 111.774 165.706C108.609 167.308 104.201 169.442 99.3175 171.732C94.4336 174.023 89.9581 176.029 86.7418 177.425C85.1252 178.123 83.8064 178.674 82.896 179.038C82.4274 179.249 81.947 179.423 81.458 179.559C81.8991 179.277 82.3602 179.041 82.8364 178.851L86.6312 177.091L99.1559 171.261L111.655 165.361L115.441 163.582C115.895 163.325 116.368 163.114 116.854 162.953Z" fill="#01C8CD"/>
<path d="M133.088 136.781C132.655 137.077 132.206 137.339 131.743 137.567C130.893 138.039 129.591 138.698 128.008 139.534C124.835 141.136 120.436 143.27 115.552 145.561C110.668 147.851 106.192 149.857 102.967 151.253C101.351 151.951 100.04 152.502 99.1215 152.866C98.654 153.08 98.1734 153.254 97.6836 153.387C98.1257 153.108 98.5867 152.871 99.062 152.679L102.857 150.919L115.373 145.039L127.872 139.14L131.667 137.361C132.128 137.127 132.602 136.933 133.088 136.781Z" fill="#01C8CD"/>
<path d="M176.158 176.767C176.016 177.004 175.85 177.222 175.665 177.416C175.183 178.026 174.669 178.601 174.124 179.136C172.14 181.138 169.913 182.795 167.513 184.052C163.935 185.91 160.068 186.914 156.146 187.002C153.827 187.051 151.513 186.75 149.262 186.107C146.86 185.396 144.529 184.391 142.311 183.108C137.733 180.532 133.666 177.494 129.693 175.381C126.21 173.408 122.419 172.264 118.546 172.018C115.937 171.863 113.333 172.426 110.948 173.66C110.305 174.008 109.688 174.416 109.102 174.879C108.902 175.05 108.691 175.205 108.472 175.341C108.654 175.145 108.847 174.965 109.051 174.8C109.622 174.299 110.232 173.858 110.872 173.483C113.258 172.166 115.886 171.538 118.529 171.654C122.457 171.869 126.305 173.01 129.837 175.007C133.853 177.121 137.937 180.149 142.473 182.705C144.669 183.962 146.973 184.95 149.347 185.655C151.559 186.292 153.833 186.596 156.112 186.559C162.644 186.456 168.949 183.774 173.98 178.959C174.703 178.291 175.214 177.701 175.571 177.317C175.754 177.116 175.95 176.932 176.158 176.767Z" fill="white"/>
<path d="M164.314 128.158C163.971 128.433 163.61 128.677 163.233 128.886C162.527 129.328 161.472 129.869 160.145 130.557C158.589 131.313 156.998 131.97 155.38 132.524C151.415 133.891 147.314 134.664 143.179 134.824C141.476 134.896 139.772 134.857 138.073 134.706C136.636 134.578 135.521 134.421 134.67 134.254C134.255 134.2 133.845 134.105 133.445 133.969C133.863 133.952 134.282 133.982 134.696 134.057C135.487 134.165 136.644 134.264 138.099 134.342C139.554 134.421 141.239 134.441 143.128 134.342C145.174 134.225 147.213 133.982 149.237 133.615C151.244 133.216 153.232 132.698 155.193 132.061C157.005 131.452 158.596 130.823 159.949 130.213C161.302 129.603 162.349 129.082 163.08 128.699C163.476 128.474 163.889 128.293 164.314 128.158Z" fill="white"/>
<path d="M103.903 237.35C103.623 237.05 103.367 236.721 103.138 236.367L101.13 233.595C98.8884 230.581 96.5082 227.709 93.9995 224.992C92.6373 223.499 91.1396 222.18 89.5325 221.059C88.2178 220.15 86.7793 219.505 85.2782 219.152C83.8853 218.864 82.4593 218.864 81.0664 219.152C81.0664 219.152 81.16 219.093 81.3472 219.024C81.6241 218.918 81.909 218.842 82.1981 218.798C83.243 218.595 84.3098 218.595 85.3547 218.798C86.9052 219.109 88.3949 219.738 89.7537 220.656C91.4055 221.781 92.9388 223.124 94.3228 224.657C96.8497 227.381 99.2095 230.305 101.385 233.408C102.236 234.597 102.865 235.59 103.291 236.279C103.527 236.61 103.733 236.969 103.903 237.35Z" fill="white"/>
<path d="M171.776 267.052C171.776 267.052 171.666 267.17 171.445 267.347C171.223 267.524 170.892 267.809 170.432 268.104C169.155 268.97 167.814 269.703 166.425 270.297C161.823 272.304 156.824 272.765 152.005 271.626C147.186 270.486 142.746 267.792 139.197 263.857C138.121 262.689 137.141 261.409 136.27 260.032C135.955 259.55 135.751 259.147 135.598 258.882C135.445 258.616 135.377 258.469 135.394 258.459C135.754 258.922 136.092 259.408 136.406 259.914C137.326 261.225 138.33 262.455 139.41 263.591C142.961 267.384 147.343 269.982 152.081 271.103C156.819 272.225 161.732 271.827 166.288 269.952C167.668 269.4 169.008 268.723 170.296 267.927C170.775 267.604 171.269 267.312 171.776 267.052Z" fill="white"/>
<path d="M196.562 329.308C196.562 329.308 196.477 329.16 196.324 328.846C196.171 328.531 195.932 328.079 195.643 327.489C194.79 325.74 193.816 324.073 192.733 322.504L191.576 320.931L190.955 320.076L190.232 319.26L188.7 317.509L186.913 315.799C184.06 313.179 180.911 311.019 177.554 309.379C173.501 307.398 169.184 306.237 164.791 305.947C159.734 305.634 154.678 306.572 149.961 308.7C144.983 310.961 140.176 314.373 135.088 317.677C132.511 319.397 129.842 320.927 127.098 322.258C124.254 323.642 121.255 324.552 118.189 324.962C115.122 325.319 112.025 325.103 109.017 324.323C106.106 323.583 103.273 322.478 100.568 321.029C95.5021 318.197 90.6814 314.813 86.1716 310.922C81.8067 307.334 77.663 303.863 73.5704 301.09C69.8077 298.428 65.7288 296.414 61.4627 295.113C57.9276 294.107 54.2671 293.827 50.6482 294.287C47.916 294.614 45.2565 295.503 42.7948 296.912C41.2548 297.823 39.8245 298.964 38.5405 300.304L37.5535 301.366C37.3408 301.611 37.2217 301.729 37.2217 301.729C37.2217 301.729 37.3153 301.592 37.528 301.326L38.4554 300.176C39.7316 298.797 41.1625 297.623 42.7097 296.686C45.1833 295.231 47.8641 294.305 50.6227 293.952C54.2717 293.458 57.9677 293.714 61.5392 294.709C65.8395 296.004 69.9549 298.011 73.7576 300.668C77.9013 303.44 82.0364 306.901 86.4099 310.499C90.9028 314.36 95.7034 317.718 100.747 320.528C103.419 321.976 106.221 323.08 109.102 323.821C112.069 324.588 115.122 324.8 118.147 324.451C121.164 324.046 124.118 323.153 126.919 321.796C129.646 320.47 132.3 318.954 134.866 317.254C139.971 313.96 144.77 310.539 149.79 308.268C151.029 307.706 152.296 307.233 153.585 306.852C154.223 306.665 154.853 306.439 155.483 306.291L157.389 305.928C159.838 305.506 162.318 305.374 164.791 305.534C169.237 305.841 173.603 307.031 177.699 309.054C181.058 310.734 184.206 312.93 187.058 315.582C187.671 316.182 188.266 316.772 188.845 317.323L190.368 319.102L191.083 319.928C191.295 320.223 191.508 320.508 191.704 320.793C192.112 321.354 192.495 321.885 192.852 322.396C193.927 323.982 194.881 325.673 195.703 327.449C195.981 328.052 196.193 328.515 196.341 328.836C196.503 329.141 196.562 329.308 196.562 329.308Z" fill="white"/>
<path d="M170.849 370.375C170.71 370.439 170.564 370.482 170.415 370.502L169.156 370.778C168.495 370.932 167.827 371.047 167.156 371.122C166.373 371.21 165.454 371.358 164.484 371.387L162.919 371.466C162.383 371.466 161.813 371.466 161.217 371.466C160.051 371.466 158.801 371.338 157.49 371.22C154.651 370.861 151.842 370.23 149.092 369.332C146.356 368.381 143.693 367.17 141.128 365.714C139.971 364.997 138.857 364.338 137.87 363.6C137.376 363.246 136.883 362.922 136.432 362.617L135.155 361.585C134.304 360.946 133.649 360.267 133.028 359.697C132.491 359.222 131.977 358.713 131.488 358.173C131.122 357.76 130.807 357.426 130.561 357.19C130.445 357.077 130.342 356.949 130.254 356.807C130.386 356.891 130.509 356.994 130.62 357.111L131.607 358.095C132.024 358.508 132.543 359.009 133.181 359.54C133.819 360.071 134.5 360.739 135.334 361.359L136.619 362.342C137.07 362.686 137.563 363.001 138.057 363.325C139.044 364.043 140.158 364.682 141.316 365.38C146.404 368.279 151.893 370.125 157.533 370.837C158.835 370.964 160.086 371.122 161.234 371.132C161.813 371.132 162.374 371.191 162.936 371.132H164.484C165.471 371.132 166.365 371.004 167.148 370.945C167.93 370.886 168.603 370.788 169.147 370.689L170.415 370.512C170.553 370.442 170.699 370.395 170.849 370.375Z" fill="white"/>
<path d="M517.25 292.92L545.584 289.724L548.52 324.421L520.186 327.626L525.061 385.28L487.794 389.498L482.944 331.844L386.661 342.718L383.504 316.438L464.633 130.527L503.135 126.172L517.25 292.92ZM419.759 303.941L479.974 297.138L471.074 191.937L470.121 191.691L467.688 199.694L419.759 303.941Z" fill="#01C8CD"/>
<g opacity="0.4">
<path opacity="0.4" d="M517.25 292.92L545.584 289.724L548.52 324.421L520.186 327.626L525.061 385.28L487.794 389.498L482.944 331.844L386.661 342.718L383.504 316.438L464.633 130.527L503.135 126.172L517.25 292.92ZM419.759 303.941L479.974 297.138L471.074 191.937L470.121 191.691L467.688 199.694L419.759 303.941Z" fill="black"/>
</g>
<path d="M540.947 290.245L569.28 287.04L572.224 321.747L543.882 324.962L548.766 382.625L511.49 386.833L506.615 329.18L410.357 340.034L407.217 313.763L488.347 127.853L526.848 123.498L540.947 290.245ZM443.464 301.257L503.679 294.483L494.779 189.282L493.818 189.027L491.393 197.03L443.464 301.257Z" fill="#01C8CD"/>
<path d="M408.289 318.679C408.029 318.959 407.744 319.206 407.438 319.417C406.885 319.869 406.069 320.498 405.056 321.265C403.022 322.799 400.198 324.863 397.024 327.066C393.85 329.268 390.949 331.185 388.822 332.532C387.767 333.201 386.899 333.742 386.269 334.096C385.965 334.303 385.642 334.475 385.308 334.607C385.566 334.339 385.852 334.108 386.158 333.919L388.617 332.218L396.752 326.623L404.835 320.96L407.294 319.249C407.605 319.015 407.939 318.824 408.289 318.679Z" fill="#01C8CD"/>
<path d="M418.415 287.276C418.046 287.639 417.654 287.968 417.241 288.26C416.475 288.859 415.344 289.715 413.94 290.757C411.132 292.831 407.218 295.673 402.878 298.622C398.539 301.572 394.54 304.335 391.639 306.222C390.192 307.205 389.009 307.923 388.184 308.425C387.766 308.706 387.331 308.952 386.882 309.162C387.266 308.82 387.673 308.514 388.099 308.248L391.502 305.908L402.674 298.19L413.812 290.413L417.215 288.063C417.598 287.766 417.999 287.503 418.415 287.276Z" fill="#01C8CD"/>
<path d="M431.961 258.538C431.572 258.902 431.159 259.231 430.727 259.521C429.876 260.131 428.736 260.996 427.264 262.048C424.32 264.142 420.219 266.964 415.658 270.032C411.097 273.099 406.937 275.803 403.899 277.769C402.385 278.752 401.151 279.49 400.292 280.001C399.854 280.286 399.399 280.533 398.93 280.738C399.335 280.397 399.762 280.091 400.206 279.824L403.746 277.455L415.437 269.648L427.102 261.783L430.633 259.403C431.056 259.076 431.5 258.787 431.961 258.538Z" fill="#01C8CD"/>
<path d="M502.701 277.553C502.441 277.827 502.156 278.068 501.85 278.27C501.297 278.713 500.472 279.322 499.459 280.07C497.417 281.564 494.575 283.57 491.393 285.713C488.211 287.856 485.284 289.705 483.148 291.003C482.085 291.661 481.217 292.173 480.596 292.517C480.291 292.72 479.969 292.885 479.634 293.008C479.897 292.751 480.182 292.527 480.485 292.34L482.961 290.688L491.121 285.261L499.247 279.765L501.723 278.103C502.029 277.877 502.358 277.692 502.701 277.553Z" fill="#01C8CD"/>
<path d="M506.547 331.471C506.29 331.749 506.004 331.99 505.696 332.188C505.16 332.621 504.369 333.231 503.382 333.978C501.416 335.453 498.668 337.448 495.588 339.572C492.508 341.696 489.674 343.505 487.607 344.822C486.577 345.471 485.735 345.983 485.148 346.327C484.854 346.53 484.54 346.692 484.212 346.808C484.475 346.555 484.76 346.334 485.063 346.15L487.454 344.508L495.358 339.13L503.22 333.663L505.611 332.021C505.903 331.795 506.217 331.61 506.547 331.471Z" fill="#01C8CD"/>
<path d="M508.47 350.279C508.212 350.557 507.927 350.798 507.619 350.997C507.083 351.429 506.292 352.039 505.305 352.786C503.339 354.261 500.591 356.257 497.511 358.37C494.431 360.484 491.597 362.303 489.53 363.63C488.5 364.279 487.658 364.791 487.071 365.135C486.777 365.338 486.462 365.5 486.135 365.616C486.398 365.363 486.683 365.142 486.986 364.958L489.377 363.316L497.281 357.938L505.143 352.471L507.534 350.829C507.826 350.603 508.14 350.418 508.47 350.279Z" fill="#01C8CD"/>
<path d="M510.376 369.087C510.119 369.365 509.833 369.606 509.525 369.805C508.989 370.237 508.198 370.847 507.211 371.584C505.245 373.069 502.497 375.065 499.417 377.178C496.337 379.292 493.504 381.111 491.436 382.439C490.406 383.087 489.564 383.599 488.977 383.943C488.68 384.141 488.367 384.302 488.041 384.425C488.304 384.171 488.589 383.95 488.892 383.766L491.283 382.124L499.187 376.746L507.049 371.279L509.44 369.637C509.732 369.411 510.046 369.226 510.376 369.087Z" fill="#01C8CD"/>
<path d="M500.702 257.672C500.44 257.948 500.155 258.192 499.851 258.4C499.289 258.833 498.472 259.452 497.451 260.199C495.409 261.684 492.567 263.699 489.385 265.833C486.203 267.966 483.276 269.825 481.149 271.132C480.077 271.781 479.209 272.302 478.596 272.646C478.292 272.849 477.97 273.014 477.635 273.138C477.899 272.883 478.184 272.659 478.486 272.469L480.953 270.818L489.121 265.39L497.247 259.885L499.715 258.233C500.026 258.006 500.356 257.818 500.702 257.672Z" fill="#01C8CD"/>
<path d="M498.703 237.802C498.443 238.081 498.158 238.325 497.852 238.53C497.29 238.962 496.473 239.572 495.452 240.319C493.419 241.814 490.577 243.829 487.386 245.963C484.195 248.096 481.285 249.954 479.15 251.262C478.086 251.911 477.218 252.432 476.597 252.776C476.296 252.983 475.972 253.145 475.636 253.258C475.897 253.003 476.183 252.782 476.487 252.599L478.954 250.938L487.122 245.52L495.248 240.014L497.716 238.353C498.027 238.131 498.358 237.946 498.703 237.802Z" fill="#01C8CD"/>
<path d="M496.711 217.932C496.468 218.196 496.199 218.427 495.911 218.62C495.375 219.043 494.592 219.604 493.622 220.341C491.691 221.767 488.985 223.684 485.964 225.719C482.944 227.754 480.145 229.524 478.111 230.763L475.686 232.198C475.395 232.391 475.087 232.546 474.767 232.66C475.031 232.415 475.316 232.201 475.618 232.021L477.966 230.438L485.752 225.277L493.486 220.026L495.843 218.453C496.115 218.243 496.406 218.068 496.711 217.932Z" fill="#01C8CD"/>
<path d="M496.371 199.114C495.129 200.184 493.801 201.112 492.406 201.887C491.077 202.808 489.679 203.588 488.228 204.217C489.47 203.148 490.797 202.219 492.193 201.444C493.521 200.521 494.919 199.741 496.371 199.114Z" fill="#01C8CD"/>
<path d="M445.353 228.846C444.969 229.212 444.559 229.54 444.128 229.829C443.277 230.438 442.129 231.304 440.657 232.356C437.721 234.45 433.62 237.272 429.059 240.339C424.499 243.407 420.338 246.11 417.301 248.018C415.786 249.001 414.544 249.738 413.684 250.25C413.249 250.531 412.797 250.777 412.332 250.987C412.735 250.643 413.162 250.337 413.608 250.073L417.147 247.703L428.838 239.897L440.495 232.031L444.035 229.652C444.457 229.347 444.898 229.077 445.353 228.846Z" fill="#01C8CD"/>
<path d="M458.754 199.114C458.366 199.478 457.953 199.807 457.521 200.097C456.67 200.707 455.53 201.572 454.058 202.624C451.114 204.718 447.013 207.54 442.461 210.608C437.908 213.675 433.731 216.379 430.693 218.286C429.179 219.27 427.945 220.007 427.085 220.518C426.648 220.803 426.193 221.05 425.724 221.256C426.129 220.914 426.556 220.609 427 220.341L430.54 217.972L442.231 210.165L453.896 202.3L457.436 199.92C457.857 199.613 458.298 199.343 458.754 199.114Z" fill="#01C8CD"/>
<path d="M470.887 169.668C470.499 170.032 470.086 170.361 469.654 170.651C468.803 171.261 467.663 172.126 466.191 173.178C463.247 175.272 459.145 178.094 454.585 181.161C450.024 184.229 445.863 186.933 442.826 188.84C441.311 189.823 440.078 190.561 439.218 191.072C438.78 191.355 438.325 191.601 437.857 191.809C438.262 191.468 438.689 191.162 439.133 190.895L442.673 188.525L454.364 180.719L466.029 172.853L469.56 170.474C469.983 170.165 470.427 169.895 470.887 169.668Z" fill="#01C8CD"/>
<path d="M483.795 141.106C483.407 141.47 482.994 141.799 482.562 142.09C481.753 142.699 480.571 143.564 479.099 144.616C476.155 146.711 472.054 149.532 467.493 152.61C462.932 155.687 458.772 158.371 455.734 160.288C454.22 161.272 452.986 161.999 452.127 162.51C451.689 162.798 451.234 163.048 450.765 163.258C451.166 162.906 451.593 162.597 452.041 162.333L455.581 159.974L467.272 152.108L478.937 144.243L482.468 141.864C482.894 141.574 483.337 141.321 483.795 141.106Z" fill="#01C8CD"/>
<path d="M531.281 173.709C531.164 173.962 531.028 174.202 530.873 174.427C530.471 175.115 530.03 175.771 529.554 176.393C527.833 178.706 525.826 180.714 523.598 182.351C520.288 184.793 516.582 186.432 512.707 187.169C510.42 187.591 508.094 187.667 505.79 187.395C503.324 187.081 500.894 186.465 498.54 185.556C493.69 183.757 489.3 181.407 485.105 179.952C481.417 178.581 477.529 178.077 473.67 178.468C471.067 178.742 468.557 179.722 466.344 181.329C465.745 181.78 465.176 182.283 464.642 182.833C464.471 183.04 464.283 183.228 464.081 183.393C464.232 183.167 464.4 182.957 464.583 182.764C465.087 182.174 465.637 181.638 466.225 181.162C468.435 179.467 470.971 178.42 473.61 178.114C477.523 177.639 481.478 178.094 485.233 179.451C489.487 180.896 493.878 183.226 498.676 185.025C501.004 185.918 503.405 186.531 505.841 186.854C508.108 187.122 510.396 187.053 512.648 186.648C516.474 185.944 520.139 184.363 523.428 181.997C525.635 180.397 527.639 178.452 529.384 176.216C529.87 175.616 530.327 174.986 530.754 174.328C530.917 174.108 531.093 173.901 531.281 173.709Z" fill="white"/>
<path d="M513.634 127.509C513.332 127.841 513.005 128.141 512.656 128.404C512.009 128.964 511.039 129.702 509.805 130.557C508.358 131.559 506.864 132.468 505.33 133.281C503.446 134.264 501.514 135.121 499.544 135.847C497.567 136.55 495.555 137.118 493.52 137.548C491.858 137.884 490.183 138.12 488.5 138.255C487.062 138.364 485.896 138.383 485.096 138.354C484.678 138.374 484.259 138.345 483.846 138.265C484.256 138.184 484.672 138.148 485.088 138.157C485.888 138.157 487.045 138.039 488.491 137.892C489.938 137.744 491.606 137.479 493.46 137.085C495.47 136.629 497.458 136.055 499.416 135.365C501.371 134.645 503.291 133.805 505.168 132.848C506.87 131.953 508.41 131.068 509.652 130.243C510.895 129.417 511.89 128.738 512.562 128.276C512.9 127.985 513.258 127.728 513.634 127.509Z" fill="white"/>
<path d="M467.118 245.432C466.813 245.173 466.528 244.884 466.267 244.567L463.936 242.158C461.353 239.537 458.649 237.078 455.836 234.794C454.305 233.523 452.659 232.448 450.926 231.589C449.515 230.904 448.013 230.502 446.485 230.399C445.07 230.331 443.656 230.551 442.307 231.048C442.307 231.048 442.392 230.969 442.571 230.871C442.829 230.729 443.097 230.611 443.371 230.517C444.384 230.156 445.442 229.993 446.502 230.035C448.073 230.092 449.623 230.472 451.079 231.156C452.849 232.001 454.528 233.08 456.083 234.371C458.918 236.66 461.614 239.173 464.149 241.893C465.119 242.935 465.85 243.859 466.386 244.429C466.662 244.73 466.908 245.067 467.118 245.432Z" fill="white"/>
<path d="M537.927 263.818C537.927 263.818 537.842 263.946 537.638 264.162C537.434 264.378 537.144 264.703 536.727 265.066C535.577 266.136 534.344 267.081 533.043 267.888C528.732 270.609 523.844 271.868 518.942 271.521C514.039 271.173 509.321 269.232 505.331 265.922C504.127 264.939 503.005 263.83 501.978 262.608C501.604 262.186 501.349 261.822 501.127 261.625C501.026 261.509 500.94 261.377 500.872 261.232C500.872 261.232 501.298 261.684 502.055 262.51C503.117 263.662 504.255 264.717 505.458 265.666C509.432 268.851 514.084 270.718 518.911 271.064C523.738 271.411 528.554 270.224 532.839 267.632C534.138 266.86 535.384 265.972 536.566 264.978C537 264.562 537.455 264.175 537.927 263.818Z" fill="white"/>
<path d="M570.055 321.413C569.941 321.293 569.833 321.165 569.732 321.029C569.528 320.744 569.255 320.331 568.881 319.8C567.82 318.21 566.654 316.718 565.392 315.337L564.048 313.96L563.333 313.223L562.482 312.525L560.781 311.05L558.798 309.644C555.662 307.514 552.29 305.887 548.775 304.807C544.515 303.493 540.092 303.034 535.697 303.45C530.653 303.965 525.763 305.718 521.352 308.592C516.698 311.64 512.358 315.799 507.738 319.899C505.394 322.015 502.939 323.962 500.387 325.729C497.734 327.561 494.869 328.948 491.878 329.849C488.882 330.693 485.789 330.982 482.714 330.704C479.737 330.42 476.795 329.761 473.942 328.738C468.582 326.764 463.399 324.2 458.465 321.079C453.7 318.227 449.199 315.474 444.792 313.4C440.724 311.383 436.425 310.059 432.029 309.467C428.405 309.061 424.747 309.393 421.223 310.45C418.558 311.218 416.034 312.53 413.769 314.324C412.35 315.482 411.063 316.843 409.94 318.375L409.132 319.633C408.945 319.918 408.843 320.056 408.843 320.056C408.843 320.056 408.919 319.899 409.09 319.604L409.872 318.316C410.968 316.74 412.245 315.344 413.667 314.167C415.934 312.318 418.474 310.965 421.163 310.175C424.715 309.089 428.405 308.739 432.063 309.143C436.479 309.73 440.798 311.055 444.885 313.075C449.327 315.14 453.845 317.893 458.61 320.725C463.526 323.819 468.685 326.367 474.019 328.334C476.844 329.328 479.754 329.964 482.697 330.232C485.726 330.509 488.774 330.224 491.725 329.386C494.665 328.495 497.48 327.128 500.089 325.326C502.628 323.574 505.069 321.64 507.398 319.535C512.026 315.455 516.391 311.286 521.088 308.218C522.248 307.462 523.447 306.789 524.679 306.203C525.283 305.908 525.87 305.593 526.483 305.338L528.32 304.669C530.695 303.853 533.136 303.316 535.604 303.067C540.042 302.654 544.509 303.126 548.809 304.463C552.345 305.563 555.735 307.217 558.883 309.379L560.866 310.804L562.568 312.318L563.418 313.016L564.133 313.773L565.469 315.17C566.708 316.575 567.846 318.094 568.872 319.712C569.213 320.262 569.485 320.695 569.672 320.98L570.055 321.413Z" fill="white"/>
<path d="M549.583 366.256C549.453 366.336 549.316 366.402 549.175 366.452L547.966 366.934C547.33 367.191 546.682 367.411 546.027 367.593C545.252 367.809 544.393 368.104 543.406 368.291L541.874 368.625C541.338 368.733 540.777 368.792 540.173 368.881C539.015 369.077 537.765 369.146 536.446 369.245C533.603 369.344 530.757 369.176 527.937 368.743C525.112 368.248 522.329 367.479 519.616 366.442C518.374 365.931 517.191 365.459 516.127 364.889C515.591 364.614 515.064 364.378 514.579 364.102L513.192 363.286C512.29 362.785 511.533 362.225 510.852 361.762C510.266 361.378 509.698 360.958 509.15 360.504L508.104 359.649C507.976 359.558 507.859 359.449 507.755 359.324C507.897 359.381 508.032 359.46 508.155 359.56L509.244 360.337C509.703 360.681 510.282 361.094 510.946 361.517C511.609 361.939 512.392 362.5 513.294 362.962L514.689 363.739C515.174 364.014 515.702 364.24 516.238 364.506C517.302 365.046 518.476 365.489 519.709 366C522.43 366.999 525.215 367.742 528.039 368.222C530.845 368.66 533.676 368.841 536.505 368.763C537.807 368.674 539.058 368.635 540.198 368.448C540.768 368.37 541.33 368.32 541.9 368.222L543.431 367.927C544.41 367.77 545.269 367.494 546.044 367.308C546.818 367.121 547.465 366.914 547.992 366.728L549.226 366.344C549.342 366.3 549.462 366.27 549.583 366.256Z" fill="white"/>
<path d="M446.204 223.399C446.119 223.399 446.034 222.357 445.591 220.754C445.327 219.82 444.991 218.915 444.587 218.051C443.583 215.939 442.189 214.11 440.503 212.692C439.816 212.114 439.084 211.611 438.316 211.188C437.006 210.47 436.113 210.205 436.13 210.146C436.346 210.136 436.562 210.169 436.768 210.244C437.35 210.388 437.919 210.592 438.469 210.854C439.277 211.245 440.047 211.733 440.767 212.309C442.539 213.724 443.983 215.621 444.97 217.834C445.372 218.733 445.689 219.679 445.915 220.656C446.071 221.299 446.176 221.957 446.229 222.622C446.257 222.881 446.248 223.143 446.204 223.399Z" fill="#EB996E"/>
<path d="M341.114 319.741C341.326 319.569 341.571 319.458 341.828 319.416C342.518 319.242 343.235 319.269 343.913 319.495C344.912 319.823 345.846 320.374 346.661 321.117C347.152 321.539 347.611 322.01 348.031 322.523C348.455 323.127 348.815 323.787 349.103 324.49C350.111 326.835 350.951 329.271 351.613 331.775C351.869 332.758 352.039 333.515 352.149 334.066C352.229 334.345 352.266 334.638 352.26 334.931C352.2 334.931 351.894 333.761 351.316 331.883C350.565 329.438 349.693 327.045 348.703 324.716C348.435 324.064 348.098 323.453 347.699 322.897C347.303 322.403 346.873 321.946 346.415 321.53C345.654 320.812 344.79 320.253 343.862 319.879C342.969 319.574 342.026 319.526 341.114 319.741Z" fill="#EB996E"/>
<path d="M347.725 346.405C347.529 346.063 347.367 345.697 347.241 345.314L346.041 342.305C345.028 339.759 343.548 336.278 342.135 332.316C341.567 330.432 340.816 328.628 339.898 326.938C339.104 325.612 338.013 324.562 336.741 323.9C335.895 323.427 334.953 323.233 334.018 323.34C333.354 323.438 333.014 323.644 332.997 323.595C332.98 323.546 333.074 323.526 333.235 323.428C333.472 323.291 333.724 323.195 333.984 323.143C334.961 322.95 335.965 323.097 336.869 323.566C338.219 324.217 339.383 325.293 340.229 326.673C341.185 328.376 341.962 330.204 342.544 332.119C343.948 336.052 345.386 339.572 346.33 342.158C346.798 343.446 347.181 344.508 347.402 345.235C347.547 345.61 347.655 346.003 347.725 346.405Z" fill="#EB996E"/>
<path d="M322.523 331.234C322.789 331.015 323.074 330.827 323.374 330.674L325.824 329.307C326.352 329.022 326.905 328.708 327.526 328.393C328.225 328.071 328.98 327.943 329.73 328.019C330.564 328.097 331.365 328.437 332.044 329.003C332.729 329.65 333.306 330.436 333.746 331.323C334.214 332.208 334.597 333.122 334.937 333.968C335.277 334.813 335.677 335.629 336.052 336.396C336.792 337.92 337.49 339.287 338 340.486C338.42 341.423 338.784 342.392 339.089 343.387C339.225 343.74 339.317 344.114 339.361 344.498C339.293 344.498 338.834 342.974 337.728 340.653C337.175 339.493 336.46 338.156 335.694 336.632C335.311 335.865 334.928 335.049 334.554 334.194C334.18 333.338 333.822 332.444 333.371 331.588C332.959 330.759 332.427 330.017 331.797 329.396C331.19 328.86 330.471 328.521 329.713 328.413C329.024 328.327 328.328 328.428 327.679 328.708C327.067 328.993 326.479 329.307 325.977 329.553L323.467 330.861C323.167 331.029 322.85 331.154 322.523 331.234Z" fill="#EB996E"/>
<path d="M323.714 326.014C323.487 326.232 323.235 326.414 322.966 326.554C322.472 326.879 321.749 327.331 320.847 327.882C319.052 328.983 316.55 330.477 313.776 332.09C311.003 333.702 308.484 335.138 306.646 336.16L304.468 337.34C304.2 337.505 303.914 337.627 303.617 337.704C303.849 337.486 304.104 337.301 304.374 337.153C304.868 336.839 305.591 336.386 306.493 335.836C308.288 334.734 310.79 333.25 313.564 331.628C316.338 330.005 318.856 328.58 320.685 327.567C321.604 327.056 322.387 326.653 322.872 326.377C323.136 326.21 323.42 326.087 323.714 326.014Z" fill="#EB996E"/>
<path d="M259.262 284.583C257.117 284.208 254.94 284.126 252.778 284.337C250.632 284.71 248.531 285.37 246.516 286.303C247.028 285.832 247.603 285.46 248.218 285.202C249.655 284.489 251.174 284.018 252.727 283.806C254.285 283.594 255.861 283.64 257.407 283.944C258.051 284.039 258.678 284.255 259.262 284.583Z" fill="#EB996E"/>
<path d="M498.212 426.701C498.943 424.864 500.049 423.259 501.436 422.026C502.823 420.793 504.449 419.968 506.173 419.622C507.897 419.277 509.669 419.421 511.334 420.043C512.999 420.665 514.508 421.745 515.732 423.191C513.938 426.535 511.153 429.01 507.895 430.152C506.174 430.853 504.304 430.895 502.561 430.274C500.817 429.653 499.293 428.4 498.212 426.701Z" fill="#01C8CD"/>
<path d="M492.171 428.314C492.952 427.91 493.772 427.613 494.613 427.429C496.153 426.997 498.297 426.515 500.671 426.063C503.045 425.61 505.206 425.266 506.78 425.079C507.624 424.917 508.478 424.842 509.333 424.853C508.515 425.131 507.678 425.328 506.831 425.443L500.748 426.593C498.382 427.046 496.238 427.478 494.689 427.813C493.859 428.035 493.018 428.202 492.171 428.314Z" fill="#263238"/>
<path d="M194.09 364.456C195.904 366.183 197.318 368.403 198.205 370.918C199.092 373.434 199.424 376.164 199.171 378.864C198.918 381.564 198.087 384.149 196.755 386.386C195.422 388.624 193.629 390.443 191.537 391.68C188.414 382.429 187.215 372.469 194.09 364.456Z" fill="#01C8CD"/>
<path d="M205.925 371.555C206.092 375.062 207.012 378.466 208.6 381.46C210.188 384.455 212.396 386.946 215.025 388.71C217.653 390.473 220.62 391.455 223.658 391.565C226.696 391.675 229.71 390.911 232.429 389.341C226.473 378.526 218.415 369.411 205.925 371.535" fill="#01C8CD"/>
<path d="M178.808 337.359C178.958 337.504 179.092 337.669 179.208 337.851L180.271 339.316C181.173 340.604 182.492 342.462 184.16 344.714C187.478 349.236 192.166 355.391 197.688 361.811C200.453 365.016 203.168 367.976 205.686 370.591C208.205 373.206 210.587 375.438 212.629 377.227C214.233 378.648 215.907 379.961 217.641 381.16C218.875 382.006 219.606 382.36 219.589 382.409C219.399 382.359 219.216 382.279 219.045 382.173C218.534 381.931 218.036 381.652 217.556 381.337C215.782 380.196 214.076 378.918 212.451 377.513C210.374 375.743 207.992 373.511 205.431 370.935C202.87 368.359 200.156 365.37 197.382 362.165C191.851 355.735 187.172 349.531 183.93 344.94C182.288 342.649 181.011 340.751 180.143 339.434L179.139 337.9C179.015 337.732 178.903 337.551 178.808 337.359Z" fill="#263238"/>
<path d="M193.434 378.437C193.358 378.437 193.639 377.061 193.885 374.829C194.517 368.992 193.981 363.065 192.32 357.505C191.682 355.381 191.163 354.113 191.231 354.074C191.407 354.332 191.553 354.616 191.665 354.919C192.02 355.719 192.338 356.539 192.618 357.377C193.535 360.153 194.136 363.055 194.404 366.01C194.669 368.957 194.598 371.932 194.192 374.858C194.065 375.763 193.895 376.659 193.681 377.542C193.629 377.851 193.546 378.151 193.434 378.437Z" fill="#263238"/>
<path d="M568.91 179.47C567.856 177.856 567.158 175.971 566.876 173.976C566.594 171.981 566.737 169.936 567.291 168.019C567.846 166.102 568.796 164.369 570.059 162.971C571.322 161.573 572.861 160.551 574.543 159.993C576.241 163.397 576.807 167.399 576.134 171.251C575.852 173.335 574.998 175.259 573.697 176.739C572.396 178.219 570.718 179.177 568.91 179.47Z" fill="#01C8CD"/>
<path d="M567.293 186.382C567.353 185.396 567.516 184.422 567.778 183.482C568.178 181.712 568.825 179.303 569.608 176.668C570.391 174.033 571.156 171.674 571.735 169.973C572.007 169.036 572.355 168.131 572.773 167.269C572.595 168.235 572.347 169.182 572.033 170.101C571.471 171.978 570.782 174.279 570.025 176.835C569.267 179.392 568.553 181.85 568.076 183.58C567.857 184.529 567.596 185.464 567.293 186.382Z" fill="#263238"/>
<path d="M531.472 252.619C530.592 248.843 530.52 244.877 531.263 241.062C532.007 237.248 533.542 233.699 535.738 230.724C537.933 227.749 540.722 225.436 543.865 223.985C547.007 222.534 550.408 221.988 553.773 222.396C554.956 229.829 552.922 237.458 549.561 243.918C545.554 251.537 537.59 254.733 531.472 252.619Z" fill="#01C8CD"/>
<path d="M506.295 281.721C506.402 281.531 506.524 281.353 506.661 281.19L507.759 279.745C508.737 278.506 510.167 276.737 511.945 274.574C515.519 270.248 520.505 264.339 526.052 257.859C531.6 251.38 536.646 245.53 540.321 241.332L544.695 236.367L545.903 235.04C546.175 234.745 546.328 234.587 546.345 234.607C546.232 234.791 546.104 234.962 545.963 235.118L544.814 236.514L540.56 241.578L526.367 258.213L512.175 274.829L507.921 279.883L506.763 281.259C506.623 281.434 506.466 281.589 506.295 281.721Z" fill="#263238"/>
<g opacity="0.3">
<path opacity="0.3" d="M531.472 252.619C530.592 248.843 530.52 244.877 531.263 241.062C532.007 237.248 533.542 233.699 535.738 230.724C537.933 227.749 540.722 225.436 543.865 223.985C547.007 222.534 550.408 221.988 553.773 222.396C554.956 229.829 552.922 237.458 549.561 243.918C545.554 251.537 537.59 254.733 531.472 252.619Z" fill="black"/>
</g>
<path d="M519.807 255.539C517.953 254.448 516.359 252.85 515.162 250.884C513.965 248.918 513.202 246.644 512.939 244.26C512.677 241.875 512.923 239.453 513.655 237.203C514.388 234.954 515.586 232.945 517.144 231.353C520.547 233.81 522.725 238.009 523.857 242.453C525.201 247.703 523.176 253.268 519.807 255.539Z" fill="#01C8CD"/>
<g opacity="0.3">
<path opacity="0.3" d="M519.807 255.539C517.953 254.448 516.359 252.85 515.162 250.884C513.965 248.918 513.202 246.644 512.939 244.26C512.677 241.875 512.923 239.453 513.655 237.203C514.388 234.954 515.586 232.945 517.144 231.353C520.547 233.81 522.725 238.009 523.857 242.453C525.201 247.703 523.176 253.268 519.807 255.539Z" fill="black"/>
</g>
<path d="M521.134 263.915C521.017 263.627 520.931 263.324 520.879 263.011C520.734 262.431 520.573 261.575 520.394 260.504C520.037 258.38 519.662 255.411 519.322 252.137C518.981 248.863 518.743 245.874 518.599 243.711C518.476 242.55 518.436 241.379 518.479 240.211C518.692 241.355 518.837 242.515 518.913 243.682C519.143 245.963 519.441 248.863 519.764 252.078C520.088 255.293 520.428 258.311 520.7 260.445C520.972 262.578 521.202 263.896 521.134 263.915Z" fill="#263238"/>
<path d="M360.449 369.49C361.75 365.925 363.799 362.791 366.411 360.371C369.023 357.952 372.116 356.323 375.41 355.632C378.705 354.941 382.096 355.209 385.278 356.414C388.459 357.618 391.331 359.72 393.633 362.529C383.984 371.172 372.727 377.071 360.517 369.49" fill="#01C8CD"/>
<g opacity="0.3">
<path opacity="0.3" d="M360.449 369.49C361.75 365.925 363.799 362.791 366.411 360.371C369.023 357.952 372.116 356.323 375.41 355.632C378.705 354.941 382.096 355.209 385.278 356.414C388.459 357.618 391.331 359.72 393.633 362.529C383.984 371.172 372.727 377.071 360.517 369.49" fill="black"/>
</g>
<path d="M355.029 372.951C355.259 372.686 355.516 372.454 355.795 372.263C356.306 371.84 357.063 371.279 358.033 370.63C363.089 367.252 368.694 365.114 374.497 364.348C375.603 364.21 376.505 364.141 377.126 364.132C377.448 364.08 377.774 364.08 378.096 364.132C378.096 364.21 376.726 364.309 374.531 364.682C371.675 365.165 368.86 365.928 366.116 366.963C363.38 368.009 360.727 369.324 358.186 370.896C356.195 372.154 355.072 373.02 355.029 372.951Z" fill="#263238"/>
<path d="M136.188 241.382C138.525 240.122 141.096 239.554 143.67 239.727C146.243 239.901 148.74 240.811 150.933 242.376C153.127 243.941 154.95 246.111 156.238 248.692C157.526 251.273 158.238 254.184 158.311 257.162C148.909 256.355 139.813 253.022 136.188 241.382Z" fill="#01C8CD"/>
<g opacity="0.3">
<path opacity="0.3" d="M136.188 241.382C138.525 240.122 141.096 239.554 143.67 239.727C146.243 239.901 148.74 240.811 150.933 242.376C153.127 243.941 154.95 246.111 156.238 248.692C157.526 251.273 158.238 254.184 158.311 257.162C148.909 256.355 139.813 253.022 136.188 241.382Z" fill="black"/>
</g>
<path d="M131.517 240.113C131.765 240.065 132.018 240.065 132.266 240.113C132.943 240.197 133.616 240.321 134.282 240.486C136.486 241.018 138.636 241.812 140.698 242.856C142.758 243.91 144.72 245.204 146.552 246.719C147.25 247.309 147.794 247.811 148.151 248.184C148.352 248.36 148.533 248.565 148.687 248.794C148.636 248.863 147.837 248.106 146.373 247.024C142.654 244.188 138.541 242.11 134.214 240.879C132.555 240.398 131.509 240.191 131.517 240.113Z" fill="#263238"/>
<path d="M441.077 357.446C440.8 354.8 441.096 352.116 441.94 349.635C442.784 347.154 444.148 344.955 445.91 343.235C447.672 341.515 449.776 340.328 452.034 339.781C454.292 339.235 456.631 339.345 458.843 340.103C455.635 349.119 450.649 357.132 441.077 357.446Z" fill="#01C8CD"/>
<path d="M438.839 361.684C439.099 360.765 439.456 359.886 439.902 359.068C441.91 355.012 444.639 351.494 447.909 348.745C448.565 348.144 449.282 347.639 450.045 347.241C449.421 347.877 448.767 348.475 448.088 349.03C444.964 351.893 442.283 355.347 440.158 359.245C439.759 360.087 439.318 360.901 438.839 361.684Z" fill="#263238"/>
<path d="M508.031 306.369C507.329 303.831 507.183 301.13 507.608 298.511C508.033 295.891 509.015 293.435 510.466 291.363C511.916 289.291 513.79 287.668 515.918 286.641C518.046 285.613 520.362 285.213 522.657 285.477C520.956 295.033 517.382 303.98 508.031 306.369Z" fill="#01C8CD"/>
<g opacity="0.3">
<path opacity="0.3" d="M508.031 306.369C507.329 303.831 507.183 301.13 507.608 298.511C508.033 295.891 509.015 293.435 510.466 291.363C511.916 289.291 513.79 287.668 515.918 286.641C518.046 285.613 520.362 285.213 522.657 285.477C520.956 295.033 517.382 303.98 508.031 306.369Z" fill="black"/>
</g>
<path d="M506.525 311.02C506.629 310.063 506.837 309.124 507.147 308.228C507.798 306.021 508.653 303.901 509.699 301.906C510.734 299.907 511.956 298.044 513.341 296.351C513.884 295.61 514.504 294.95 515.187 294.385C514.682 295.145 514.142 295.873 513.571 296.567C512.277 298.318 511.108 300.185 510.073 302.152C509.058 304.127 508.179 306.192 507.444 308.326C507.183 309.244 506.876 310.143 506.525 311.02Z" fill="#263238"/>
<path d="M3.32715 236.062C3.82739 233.46 4.87978 231.043 6.38957 229.027C7.89936 227.012 9.81916 225.462 11.9762 224.517C14.1332 223.572 16.4597 223.262 18.7463 223.614C21.0328 223.966 23.2077 224.97 25.0751 226.535C19.4594 233.801 12.4484 239.444 3.32715 236.062Z" fill="#01C8CD"/>
<path d="M0 239.199C0.511808 238.436 1.10019 237.746 1.75277 237.144C3.27845 235.634 4.9384 234.316 6.70477 233.211C8.47266 232.085 10.3414 231.185 12.2779 230.527C13.0661 230.206 13.8869 230.004 14.7199 229.927C13.9531 230.304 13.1691 230.632 12.3715 230.91C8.60097 232.406 5.07891 234.633 1.95698 237.498C1.33416 238.109 0.680697 238.677 0 239.199Z" fill="#263238"/>
</svg>
