<svg width="92" height="48" viewBox="0 0 92 48" fill="none" xmlns="http://www.w3.org/2000/svg">
<g clip-path="url(#clip0)">
<path d="M0 25.3799C0.0238727 22.2741 1.28385 19.3021 3.50784 17.1059C5.73182 14.9097 8.74133 13.6654 11.8864 13.6418C13.4465 13.6455 14.9885 13.971 16.4137 14.5976C17.8389 15.2242 19.1158 16.138 20.1624 17.2804C20.1913 17.3141 20.2299 17.3381 20.2731 17.3492C20.3162 17.3604 20.3618 17.3581 20.4036 17.3427C20.4454 17.3273 20.4814 17.2995 20.5066 17.2632C20.5318 17.2268 20.5451 17.1837 20.5446 17.1396V14.222C20.5438 14.1934 20.5489 14.165 20.5594 14.1384C20.57 14.1117 20.5858 14.0875 20.606 14.067C20.6262 14.0465 20.6504 14.0302 20.677 14.0191C20.7037 14.008 20.7324 14.0023 20.7613 14.0023H23.8185C23.8474 14.0023 23.8761 14.008 23.9028 14.0191C23.9294 14.0302 23.9536 14.0465 23.9738 14.067C23.994 14.0875 24.0098 14.1117 24.0204 14.1384C24.0309 14.165 24.036 14.1934 24.0352 14.222V36.5435C24.0352 36.6008 24.0126 36.6558 23.9721 36.6969C23.9316 36.7379 23.8765 36.7617 23.8185 36.7632H20.7613C20.7033 36.7617 20.6482 36.7379 20.6077 36.6969C20.5672 36.6558 20.5446 36.6008 20.5446 36.5435V33.6371C20.5463 33.5926 20.534 33.5486 20.5092 33.5114C20.4844 33.4741 20.4485 33.4454 20.4064 33.4293C20.3643 33.4132 20.3182 33.4104 20.2745 33.4214C20.2307 33.4324 20.1916 33.4567 20.1624 33.4907C19.1284 34.6552 17.8562 35.5902 16.4297 36.2338C15.0032 36.8775 13.4548 37.2153 11.8864 37.225C5.37285 37.225 0 31.7165 0 25.3799ZM20.3335 25.3799C20.2833 23.1652 19.3622 21.0567 17.7654 19.5009C16.1685 17.945 14.0212 17.0638 11.7781 17.0439C7.13527 17.0439 3.64464 20.8007 3.64464 25.3799C3.64464 29.8859 7.13527 33.8287 11.7781 33.8287C14.028 33.7689 16.1692 32.8596 17.7607 31.2879C19.3522 29.7163 20.273 27.6018 20.3335 25.3799Z" fill="#E53770"/>
<path d="M33.3778 0H36.435C36.4925 0 36.5476 0.02255 36.5882 0.0626892C36.6289 0.102828 36.6517 0.157269 36.6517 0.214034V36.5435C36.6525 36.5721 36.6474 36.6006 36.6369 36.6272C36.6263 36.6538 36.6105 36.6781 36.5903 36.6985C36.5701 36.719 36.5459 36.7353 36.5193 36.7464C36.4926 36.7575 36.4639 36.7632 36.435 36.7632H33.3778C33.3489 36.7632 33.3202 36.7575 33.2935 36.7464C33.2669 36.7353 33.2427 36.719 33.2225 36.6985C33.2023 36.6781 33.1865 36.6538 33.1759 36.6272C33.1654 36.6006 33.1603 36.5721 33.1611 36.5435V0.214034C33.1611 0.185927 33.1667 0.158095 33.1776 0.132127C33.1885 0.106159 33.2044 0.0825641 33.2246 0.0626892C33.2447 0.0428143 33.2686 0.0270486 33.2949 0.0162924C33.3212 0.00553616 33.3494 0 33.3778 0" fill="#E53770"/>
<path d="M42.4923 14.0023H45.8289C45.8718 14.0034 45.9135 14.0168 45.949 14.0407C45.9844 14.0647 46.012 14.0983 46.0285 14.1375L53.3292 31.5982C53.3449 31.6387 53.3726 31.6735 53.4088 31.6981C53.4449 31.7227 53.4878 31.7359 53.5317 31.7359C53.5756 31.7359 53.6184 31.7227 53.6546 31.6981C53.6908 31.6735 53.7185 31.6387 53.7342 31.5982L60.9835 14.1375C61.001 14.0979 61.0297 14.0641 61.0661 14.0401C61.1025 14.0162 61.1451 14.003 61.1888 14.0023H64.5198C64.5557 14.0027 64.591 14.0116 64.6226 14.0284C64.6543 14.0451 64.6813 14.0692 64.7015 14.0985C64.7217 14.1279 64.7344 14.1616 64.7385 14.1968C64.7426 14.2321 64.738 14.2677 64.7251 14.3008L55.4681 36.521C55.4518 36.5615 55.4235 36.5961 55.3868 36.6202C55.3501 36.6444 55.3068 36.6569 55.2627 36.6562H51.7493C51.7062 36.6558 51.6641 36.6427 51.6286 36.6186C51.593 36.5946 51.5655 36.5606 51.5497 36.521L42.2926 14.3008C42.2784 14.2682 42.2727 14.2327 42.2759 14.1973C42.2791 14.162 42.2911 14.128 42.3109 14.0984C42.3307 14.0688 42.3576 14.0445 42.3893 14.0278C42.4209 14.011 42.4563 14.0022 42.4923 14.0023Z" fill="#E53770"/>
<path d="M81.8532 13.4616V16.4862C81.8531 16.5343 81.8694 16.5809 81.8994 16.6187C81.9294 16.6565 81.9714 16.6833 82.0186 16.6946C83.8461 17.1462 85.4656 18.194 86.6147 19.6682C87.7639 21.1423 88.3752 22.9565 88.3497 24.8167C88.3613 26.7124 87.7269 28.5569 86.5486 30.0536C85.3703 31.5502 83.7165 32.612 81.8532 33.0683C80.7059 33.3235 79.5155 33.3235 78.3683 33.0683C76.5039 32.6131 74.8488 31.5518 73.6694 30.055C72.49 28.5583 71.8548 26.7132 71.8661 24.8167C71.8406 22.9565 72.4519 21.1423 73.601 19.6682C74.7501 18.194 76.3697 17.1462 78.1972 16.6946C78.2455 16.6844 78.2888 16.6581 78.3199 16.6202C78.351 16.5823 78.3681 16.535 78.3683 16.4862V13.4616C78.3678 13.4301 78.3606 13.3992 78.347 13.3707C78.3333 13.3423 78.3137 13.3171 78.2894 13.2968C78.265 13.2765 78.2366 13.2616 78.2059 13.2531C78.1752 13.2446 78.1431 13.2427 78.1116 13.2476C75.3544 13.7308 72.8558 15.1527 71.05 17.2663C69.2442 19.3798 68.2454 22.0514 68.2272 24.8167C68.2607 27.6325 69.2944 30.3473 71.1478 32.4874C73.0012 34.6275 75.5566 36.057 78.3683 36.5266C78.642 36.566 78.9386 36.5998 79.2067 36.6224H79.4919C79.6972 36.6224 79.9026 36.6224 80.1079 36.6224C80.3132 36.6224 80.5186 36.6224 80.7239 36.6224H81.0091C81.2885 36.6224 81.5794 36.566 81.8532 36.5266C84.6659 36.0582 87.2227 34.6292 89.0772 32.489C90.9318 30.3487 91.9662 27.6333 92 24.8167C91.9825 22.0538 90.9861 19.3842 89.1837 17.271C87.3814 15.1578 84.8868 13.7343 82.1327 13.2476C82.1015 13.2426 82.0696 13.2445 82.0392 13.253C82.0088 13.2615 81.9807 13.2765 81.9568 13.2969C81.9329 13.3173 81.9138 13.3426 81.9008 13.3711C81.8879 13.3995 81.8813 13.4304 81.8817 13.4616" fill="#E53770"/>
<path d="M85.1841 24.8674C85.1849 25.8942 84.8656 26.8963 84.2697 27.7377C83.6738 28.5791 82.8301 29.219 81.8532 29.5705C81.6992 29.6268 81.5395 29.6719 81.3798 29.717C80.964 29.8213 80.5368 29.8743 80.1079 29.8747C79.5991 29.8753 79.0933 29.7994 78.6078 29.6494L78.3682 29.5705C77.3919 29.2182 76.5488 28.5781 75.9531 27.7368C75.3574 26.8956 75.038 25.8939 75.038 24.8674C75.038 23.8409 75.3574 22.8392 75.9531 21.9979C76.5488 21.1567 77.3919 20.5166 78.3682 20.1643L78.6078 20.0854C79.0933 19.9354 79.5991 19.8594 80.1079 19.8601C80.5349 19.8608 80.9602 19.9138 81.3741 20.0178C81.5344 20.0581 81.6925 20.107 81.8475 20.1643C82.8244 20.5158 83.6681 21.1557 84.264 21.9971C84.8599 22.8385 85.1792 23.8406 85.1784 24.8674" fill="#00C4C9"/>
<path d="M82.9255 24.8674C82.9255 25.4177 82.7602 25.9557 82.4506 26.4132C82.141 26.8708 81.701 27.2275 81.1861 27.4381C80.6713 27.6486 80.1047 27.7037 79.5582 27.5964C79.0116 27.489 78.5096 27.224 78.1155 26.8349C77.7215 26.4458 77.4531 25.95 77.3444 25.4102C77.2357 24.8705 77.2915 24.311 77.5047 23.8026C77.718 23.2942 78.0791 22.8596 78.5425 22.5539C79.0058 22.2481 79.5506 22.085 80.1079 22.085C80.8551 22.085 81.5718 22.3781 82.1002 22.8999C82.6286 23.4217 82.9255 24.1295 82.9255 24.8674Z" fill="#005588"/>
<path d="M19.073 47.3128C19.3525 47.3178 19.6248 47.2262 19.843 47.0537C19.9466 46.9735 20.0325 46.8731 20.0952 46.7588C20.158 46.6444 20.1964 46.5186 20.2081 46.3891H20.9895C20.9715 46.6715 20.8726 46.943 20.7043 47.172C20.5185 47.4116 20.2782 47.6046 20.0027 47.7353C19.7147 47.8799 19.3962 47.9552 19.073 47.9549C18.7789 47.9677 18.4856 47.9157 18.2143 47.8027C17.943 47.6897 17.7005 47.5185 17.5045 47.3016C17.0979 46.8006 16.8946 46.1682 16.9342 45.5273V45.3922C16.9258 44.9654 17.0135 44.5422 17.1908 44.153C17.3511 43.8071 17.6084 43.5139 17.9323 43.3081C18.2769 43.1055 18.6721 43.0021 19.073 43.0096C19.5683 42.9932 20.0507 43.1668 20.4191 43.494C20.5967 43.6509 20.7392 43.8426 20.8374 44.0569C20.9356 44.2713 20.9874 44.5035 20.9895 44.7388H20.2081C20.1934 44.4499 20.0668 44.1776 19.8544 43.9784C19.7496 43.88 19.626 43.803 19.491 43.7518C19.3559 43.7005 19.212 43.6761 19.0673 43.6799C18.8798 43.6699 18.6926 43.7058 18.5225 43.7844C18.3523 43.863 18.2045 43.9819 18.092 44.1305C17.8368 44.5115 17.7146 44.9644 17.7441 45.4203V45.6231C17.7141 46.0737 17.8365 46.5215 18.092 46.896C18.2062 47.0434 18.3556 47.1606 18.5267 47.2373C18.6979 47.3139 18.8855 47.3476 19.073 47.3354" fill="#005588"/>
<path d="M23.0656 45.4822C23.0608 45.0462 23.1563 44.6148 23.3451 44.2206C23.5145 43.864 23.7854 43.5638 24.1247 43.3567C24.464 43.1497 24.857 43.0447 25.2558 43.0546C25.556 43.044 25.8549 43.0991 26.131 43.2159C26.4071 43.3328 26.6536 43.5085 26.8528 43.7305C27.2763 44.231 27.4942 44.8702 27.4631 45.5217V45.578C27.4702 46.01 27.3765 46.4378 27.1893 46.8284C27.0225 47.1831 26.755 47.4825 26.4193 47.6902C26.0755 47.8959 25.6806 48.0032 25.2786 47.9999C24.9764 48.0108 24.6757 47.9548 24.3983 47.8359C24.121 47.717 23.8741 47.5382 23.6759 47.3128C23.2522 46.8146 23.0343 46.1771 23.0656 45.5273V45.4822ZM23.8983 45.578C23.8737 46.0314 24.0043 46.4797 24.2691 46.8509C24.3875 47.0007 24.5389 47.1219 24.7119 47.2053C24.8848 47.2886 25.0747 47.3319 25.2672 47.3319C25.4596 47.3319 25.6496 47.2886 25.8225 47.2053C25.9955 47.1219 26.1469 47.0007 26.2653 46.8509C26.5336 46.4475 26.6635 45.9697 26.6361 45.4879C26.652 45.0295 26.5113 44.5792 26.2368 44.2093C26.1213 44.0548 25.9697 43.9301 25.7949 43.8457C25.6202 43.7614 25.4274 43.72 25.233 43.7249C25.0416 43.7202 24.8519 43.7612 24.6801 43.8446C24.5082 43.928 24.3594 44.0512 24.2462 44.2037C23.9756 44.6102 23.8456 45.0924 23.8755 45.578" fill="#005588"/>
<path d="M30.6458 43.1448L30.6743 43.7419C30.8424 43.5226 31.061 43.3459 31.3119 43.2264C31.5628 43.1069 31.8389 43.0481 32.1173 43.0547C33.1402 43.0547 33.6535 43.618 33.6573 44.7444V47.893H32.836V44.7388C32.8525 44.465 32.7674 44.1946 32.5964 43.9784C32.4988 43.8894 32.3835 43.8214 32.2578 43.7787C32.1321 43.736 31.9988 43.7197 31.8664 43.7306C31.6154 43.7261 31.3695 43.8011 31.1648 43.9446C30.9591 44.0875 30.7957 44.2819 30.6914 44.5079V47.8874H29.8644V43.1448H30.6458Z" fill="#005588"/>
<path d="M39.0815 46.6482C39.0871 46.5479 39.0671 46.4479 39.0232 46.3573C38.9794 46.2667 38.9131 46.1886 38.8305 46.13C38.5601 45.9718 38.2622 45.8649 37.9521 45.8146C37.6088 45.7527 37.2751 45.6467 36.9597 45.4992C36.7353 45.4023 36.5391 45.2512 36.3893 45.0598C36.2717 44.8787 36.212 44.6667 36.2182 44.4515C36.2178 44.2591 36.2629 44.0692 36.3501 43.897C36.4373 43.7249 36.564 43.5753 36.7202 43.4602C37.0836 43.1792 37.5366 43.0354 37.9978 43.0547C38.4795 43.0331 38.9531 43.183 39.3324 43.4771C39.4949 43.6047 39.6252 43.7678 39.7133 43.9534C39.8014 44.1391 39.8447 44.3423 39.8401 44.5473H39.0358C39.0326 44.438 39.0049 44.3307 38.9546 44.2333C38.9043 44.1359 38.8327 44.0507 38.745 43.984C38.5411 43.8195 38.2837 43.7335 38.0206 43.7418C37.7712 43.7299 37.5247 43.7992 37.319 43.939C37.2379 43.9953 37.172 44.0705 37.1273 44.1579C37.0825 44.2454 37.0602 44.3423 37.0624 44.4402C37.0578 44.5289 37.0776 44.6171 37.1198 44.6955C37.162 44.7738 37.2249 44.8394 37.3019 44.8852C37.5675 45.026 37.8545 45.1231 38.1518 45.1725C38.4983 45.2419 38.8352 45.3515 39.1556 45.4992C39.3814 45.6016 39.5776 45.7585 39.726 45.9554C39.8549 46.1412 39.9244 46.361 39.9256 46.5862C39.9315 46.7861 39.8872 46.9844 39.7967 47.1632C39.7061 47.3421 39.5721 47.4961 39.4066 47.6113C39.016 47.8846 38.5443 48.0213 38.0662 48C37.7131 48.007 37.3627 47.9378 37.0396 47.7972C36.7595 47.6763 36.5187 47.4814 36.3437 47.234C36.1785 47.0057 36.0906 46.7316 36.0927 46.451H36.9141C36.9173 46.577 36.9493 46.7007 37.0075 46.8128C37.0658 46.925 37.1488 47.0227 37.2506 47.0988C37.4878 47.266 37.7751 47.3494 38.0662 47.3353C38.3193 47.3398 38.5684 47.2734 38.7849 47.1438C38.8717 47.093 38.9433 47.0204 38.9924 46.9333C39.0415 46.8462 39.0663 46.7478 39.0644 46.6482" fill="#005588"/>
<path d="M45.3327 47.4367C45.1549 47.6295 44.9354 47.7803 44.6905 47.8778C44.4456 47.9754 44.1816 48.0171 43.9182 48C43.7014 48.0139 43.4842 47.9813 43.2813 47.9045C43.0785 47.8277 42.895 47.7085 42.7432 47.555C42.4477 47.1824 42.3034 46.7146 42.3382 46.2426V43.1448H43.1596V46.2201C43.1596 46.9467 43.4562 47.3072 44.055 47.3072C44.3121 47.3364 44.5718 47.2845 44.7972 47.1591C45.0226 47.0336 45.202 46.841 45.3098 46.6087V43.1448H46.1369V47.9098H45.3498L45.3327 47.4367Z" fill="#005588"/>
<path d="M49.6561 41.1453H48.829V47.9099H49.6561V41.1453Z" fill="#005588"/>
<path d="M53.4661 41.9901V43.1166H54.3672V43.7474H53.4661V46.7496C53.4546 46.9016 53.497 47.0529 53.5858 47.1776C53.6389 47.2307 53.7034 47.2713 53.7744 47.2967C53.8455 47.322 53.9213 47.3314 53.9965 47.3241C54.1275 47.3197 54.2576 47.3008 54.3844 47.2677V47.9267C54.1781 47.9835 53.9653 48.0137 53.7512 48.0169C53.5961 48.027 53.4406 48.0024 53.2964 47.9448C53.1522 47.8873 53.023 47.7983 52.9185 47.6846C52.7165 47.4152 52.6175 47.084 52.639 46.7496V43.7756H51.7607V43.1448H52.639V42.0183L53.4661 41.9901Z" fill="#005588"/>
<path d="M56.392 45.4823C56.385 45.0461 56.4807 44.6141 56.6715 44.2206C56.8409 43.8687 57.1105 43.5732 57.4472 43.3701C57.7903 43.1633 58.1861 43.0577 58.588 43.066C58.8873 43.0554 59.1853 43.1105 59.4605 43.2274C59.7357 43.3443 59.9812 43.52 60.1793 43.7419C60.6028 44.2423 60.8206 44.8815 60.7896 45.533V45.5893C60.7964 46.0207 60.7048 46.4481 60.5215 46.8397C60.3509 47.1938 60.0819 47.4927 59.7458 47.7015C59.4024 47.9081 59.0072 48.0154 58.6051 48.0113C58.3012 48.0205 57.9992 47.9625 57.7209 47.8417C57.4426 47.7208 57.1952 47.5402 56.9966 47.3129C56.5745 46.8142 56.3586 46.1765 56.392 45.5274V45.4823ZM57.2191 45.5781C57.1971 46.0312 57.3274 46.4787 57.5898 46.851C57.7044 47.0048 57.8551 47.1287 58.029 47.2121C58.2029 47.2955 58.3947 47.3359 58.588 47.3298C58.782 47.3372 58.9748 47.2968 59.1491 47.2123C59.3233 47.1277 59.4735 47.0016 59.5861 46.8454C59.8578 46.4435 59.988 45.9645 59.9568 45.4823C59.9781 45.0285 59.8456 44.5806 59.5804 44.2094C59.4661 44.0549 59.3156 43.9302 59.1417 43.8458C58.9679 43.7615 58.7759 43.72 58.5823 43.725C58.3908 43.7198 58.2009 43.7606 58.029 43.844C57.8571 43.9274 57.7083 44.0509 57.5955 44.2037C57.3198 44.6082 57.1874 45.0915 57.2191 45.5781Z" fill="#005588"/>
<path d="M65.5179 43.877C65.3842 43.8536 65.2487 43.8423 65.113 43.8432C64.8797 43.825 64.6467 43.8814 64.4484 44.0042C64.2501 44.1269 64.0972 44.3094 64.0122 44.5247V47.9042H63.1851V43.1448H63.9893V43.708C64.1024 43.5087 64.2683 43.3435 64.4693 43.2304C64.6703 43.1172 64.8988 43.0604 65.1301 43.0659C65.2549 43.06 65.3795 43.0811 65.4951 43.1279L65.5179 43.877Z" fill="#005588"/>
<path d="M67.6511 41.8775C67.6499 41.7552 67.6946 41.6369 67.7765 41.5452C67.8226 41.4979 67.8787 41.4612 67.9409 41.4378C68.003 41.4145 68.0696 41.405 68.1359 41.41C68.2038 41.4052 68.2721 41.4148 68.336 41.4381C68.3999 41.4614 68.4581 41.4979 68.5066 41.5452C68.5885 41.6369 68.6332 41.7552 68.6321 41.8775C68.6357 41.9418 68.6252 42.0061 68.6012 42.066C68.5773 42.1259 68.5404 42.1799 68.4932 42.2243C68.4461 42.2688 68.3897 42.3026 68.328 42.3234C68.2663 42.3443 68.2007 42.3516 68.1359 42.345C68.0696 42.35 68.003 42.3405 67.9409 42.3172C67.8787 42.2938 67.8226 42.2571 67.7765 42.2098C67.6927 42.1193 67.6477 42.0002 67.6511 41.8775ZM68.5465 47.9099H67.7195V43.1448H68.5465V47.9099Z" fill="#005588"/>
<path d="M74.216 47.9099C74.1504 47.7498 74.11 47.5807 74.0962 47.4086C73.9204 47.5915 73.7079 47.7362 73.4721 47.8332C73.2364 47.9302 72.9827 47.9774 72.7273 47.9718C72.2988 47.9886 71.8794 47.8459 71.5524 47.5719C71.405 47.4468 71.2877 47.291 71.2088 47.1157C71.1299 46.9403 71.0914 46.7499 71.0961 46.5581C71.0914 46.3387 71.1409 46.1215 71.2403 45.9252C71.3397 45.7289 71.4859 45.5595 71.6665 45.4316C72.1451 45.1301 72.7082 44.9862 73.2749 45.0204H74.0791V44.6486C74.0856 44.5238 74.0661 44.3989 74.022 44.2817C73.9779 44.1645 73.91 44.0575 73.8224 43.9671C73.7183 43.8772 73.5971 43.8085 73.4659 43.765C73.3348 43.7215 73.1962 43.7041 73.0581 43.7137C72.7932 43.7042 72.5326 43.7815 72.3167 43.9333C72.2266 43.9903 72.1524 44.0686 72.1006 44.161C72.0488 44.2535 72.0211 44.3572 72.0201 44.4628H71.1873C71.193 44.2119 71.2833 43.97 71.444 43.7756C71.6284 43.5467 71.8675 43.3667 72.1399 43.2518C72.4453 43.1192 72.7758 43.052 73.1095 43.0547C73.581 43.0301 74.0455 43.1763 74.4156 43.4658C74.5735 43.6086 74.6989 43.7828 74.7834 43.977C74.868 44.1712 74.9098 44.381 74.9061 44.5923V46.7834C74.8936 47.1398 74.9497 47.4953 75.0715 47.831V47.8986L74.216 47.9099ZM72.8471 47.2903C73.1045 47.2885 73.3566 47.2184 73.5772 47.0875C73.7944 46.9723 73.9698 46.7932 74.0791 46.575V45.6231H73.4346C72.4193 45.6231 71.9174 45.916 71.9174 46.5017C71.9113 46.614 71.9313 46.7261 71.9758 46.8296C72.0202 46.9331 72.0881 47.0251 72.1741 47.0988C72.3614 47.2509 72.5991 47.3292 72.8414 47.3184" fill="#005588"/>
</g>
<defs>
<clipPath id="clip0">
<rect width="92" height="48" fill="white"/>
</clipPath>
</defs>
</svg>
